<svg xmlns="http://www.w3.org/2000/svg" version="1.1" xmlns:xlink="http://www.w3.org/1999/xlink" xmlns:svgjs="http://svgjs.com/svgjs" width="1440" height="560" preserveAspectRatio="none" viewBox="0 0 1440 560"><g mask="url(&quot;#SvgjsMask2175&quot;)" fill="none"><rect width="1440" height="560" x="0" y="0" fill="rgba(67, 91, 161, 1)"></rect><use xlink:href="#SvgjsG2188" transform="translate(0, 0)" fill="#0f457b"></use><use xlink:href="#SvgjsG2188" transform="translate(702, 0)" fill="#0f457b"></use><use xlink:href="#SvgjsG2188" transform="translate(1404, 0)" fill="#0f457b"></use></g><defs><mask id="SvgjsMask2175"><rect width="1440" height="560" fill="#ffffff"></rect></mask><g id="SvgjsG2176"><path d="M11.986 8.245a46.749 46.749 0 0 1-0.521-0.411c-0.146-0.116-0.293-0.233-0.44-0.348-0.88-0.688-1.797-1.316-2.816-1.407A2.815 2.815 0 0 0 7.954 6.067c-0.086 0-0.171 0.011-0.255 0.018-1.022 0.093-1.942 0.717-2.826 1.408l0.093 0.073c0.108 0.085 0.213 0.168 0.32 0.252C6.165 7.137 7.021 6.576 7.954 6.576c0.93 0 1.784 0.558 2.66 1.236a35.098 35.098 0 0 1 0.535 0.421c0.142 0.113 0.283 0.226 0.426 0.338C12.532 9.32 13.531 10 14.658 10c0.437 0 0.854-0.104 1.257-0.273v-0.557c-0.409 0.197-0.825 0.32-1.257 0.32-0.934 0-1.792-0.563-2.672-1.245z"></path><path d="M11.574 7.496c0.029 0.023 0.059 0.046 0.088 0.07 0.109 0.087 0.216 0.17 0.325 0.256 0.318-0.246 0.635-0.476 0.952-0.67v1.37c0.17 0.111 0.34 0.214 0.51 0.301V6.878c0.315-0.147 0.634-0.248 0.96-0.283v2.537c0.078 0.01 0.157 0.018 0.237 0.018 0.091 0 0.183-0.009 0.273-0.021V6.592c0.34 0.037 0.67 0.144 0.996 0.3V6.336C15.514 6.17 15.099 6.067 14.664 6.067c-1.128 0-2.13 0.68-3.09 1.429z m-7.248 1.08c-0.034-0.027-0.068-0.053-0.102-0.08-0.104-0.083-0.207-0.162-0.31-0.245-0.877 0.678-1.733 1.238-2.665 1.238C0.82 9.49 0.407 9.36 0 9.152v0.562C0.401 9.891 0.815 10 1.249 10c1.124 0 2.122-0.677 3.077-1.423z"></path><path d="M0.989 9.133c0.084 0.011 0.17 0.019 0.254 0.02 0.086 0 0.171-0.008 0.256-0.02V6.592c0.329 0.035 0.65 0.136 0.967 0.285-0.002 0.012-0.007 0.023-0.007 0.036v1.903a5.818 5.818 0 0 0 0.51-0.303V7.152c0.487 0.3 0.971 0.684 1.467 1.08C5.525 9.101 6.652 10 7.948 10c1.123 0 2.121-0.675 3.078-1.42l-0.106-0.084c-0.103-0.082-0.205-0.161-0.306-0.242-0.313 0.242-0.622 0.466-0.934 0.658V7.564A5.816 5.816 0 0 0 9.17 7.261v1.893c0 0.01 0.004 0.019 0.005 0.029-0.316 0.149-0.637 0.252-0.965 0.288V6.937a1.97 1.97 0 0 0-0.267-0.02c-0.082 0-0.163 0.008-0.243 0.017v2.541c-0.33-0.035-0.652-0.136-0.969-0.283 0.002-0.013 0.006-0.024 0.006-0.039V7.248a5.629 5.629 0 0 0-0.51 0.302v1.368c-0.49-0.299-0.976-0.686-1.474-1.083C3.666 6.966 2.539 6.067 1.243 6.067c-0.432 0-0.844 0.096-1.243 0.251v0.55c0.324-0.144 0.652-0.244 0.989-0.278V9.133z"></path></g><g id="SvgjsG2177"><path d="M9.992 5.121c0 1.164-0.945 2.107-2.11 2.107-1.163 0-2.106-0.943-2.106-2.107 0-1.164 0.944-2.107 2.107-2.107 1.165 0 2.11 0.943 2.111 2.107z"></path><path d="M7.885 0c0.935 0 2.466 0.393 3.32 1.326L10.056 3.532a2.735 2.735 0 0 0-2.171-1.066 2.734 2.734 0 0 0-2.152 1.044L4.561 1.375C5.548 0.389 6.91 0 7.885 0z m-0.332 2.113h0.655V1.568h0.546V0.912h-0.546v-0.547h-0.655v0.547h-0.546V1.568h0.546v0.545z m-2.44 8.903h0.54L4.883 13.658h6.023l-0.768-2.642h0.54l0.772 2.641h1.773L12.013 9.654c-0.189-0.661-1.018-1.824-2.448-1.859l-3.287-0.003c-1.462 0.007-2.308 1.193-2.5 1.863L2.545 13.658h1.798l0.77-2.643zM0 14.5h15.767V16H0z"></path></g><g id="SvgjsG2178"><path d="M8.221 6.211a0.931 0.931 0 0 1 1.171 0.604c0.156 0.489-0.114 1.013-0.604 1.171l-2.532 0.809a0.932 0.932 0 0 1-0.858-0.153l-1.047-0.819L6.625 16H0V5.61a1.111 1.111 0 0 1 1.111-1.111h1.657c0.236 0 0.454 0.075 0.633 0.215L6.158 6.87l2.063-0.659zM4.174 9.344h-1.005v-1.006h-1.199v1.006H0.969v1.203h1.001v1.001h1.199V10.547h1.005V9.344zM2.159 3.999c1.104 0 1.999-0.894 1.999-2C4.158 0.896 3.262 0 2.158 0S0.159 0.896 0.159 1.999c0 1.106 0.896 2 2 2m11.766 0.007c1.105 0 2.002-0.896 2.003-2.001C15.928 0.898 15.03 0 13.925 0c-1.106 0-2.003 0.898-2.002 2.005 0 1.105 0.896 2.002 2.002 2.001"></path><path d="M13.32 4.544c-0.819 0-1.191 0.28-1.502 0.766l-0.202 0.387-1.169-0.342 0.049-0.319-2.795-0.626-0.077 0.349-0.523-0.116 0.078-0.35-0.209-0.047-0.24 1.071 0.209 0.047 0.08-0.35 0.522 0.117-0.078 0.35 2.795 0.626 0.091-0.328 1.132 0.183-2.918 5.609a0.912 0.912 0 0 0 0.408 1.224c0.451 0.227 0.999 0.043 1.227-0.407l2.434-4.724h0.399v8.335h2.869V4.544H13.32z"></path></g><g id="SvgjsG2179"><path d="M2.325 8.986a1.069 1.069 0 0 1 1.071-1.07 1.07 1.07 0 0 1 0 2.14 1.07 1.07 0 0 1-1.071-1.07m10.341-0.655c0.471 0 0.851 0.369 0.856 0.837l0.001 2.257H4.93V8.333l7.737-0.002zM3.941 11.424a0.527 0.527 0 0 0 0.527-0.527 0.527 0.527 0 0 0-0.527-0.527H2.418a0.526 0.526 0 0 0-0.526 0.527 0.526 0.526 0 0 0 0.526 0.526h1.523z"></path><path d="M14.033 13.645V16h1.394V8.531a0.696 0.696 0 0 0-0.695-0.696 0.698 0.698 0 0 0-0.699 0.696v3.428H1.512V7.123c0-0.384-0.336-0.697-0.721-0.698C0.406 6.426 0.104 6.738 0.104 7.123V16h1.407V13.645h12.522zM9.614 0c0.446 0 1.177 0.187 1.583 0.632L10.65 1.685a1.305 1.305 0 0 0-1.036-0.509 1.303 1.303 0 0 0-1.027 0.499l-0.559-1.019C8.499 0.185 9.149 0 9.614 0M9.456 1.06h0.312V0.748h0.313V0.436h-0.313V0.123H9.456v0.313h-0.313v0.312H9.456v0.312z"></path><path d="M10.617 2.552a1.006 1.006 0 0 1-1.006 1.006 1.005 1.005 0 0 1-1.004-1.006c0-0.556 0.45-1.005 1.004-1.005s1.006 0.45 1.006 1.005M8.645 3.844c-0.703 0.004-1.11 0.574-1.202 0.897l-0.857 2.81h0.867l0.631-2.157h0.449L7.904 7.551h3.41L10.69 5.395h0.448l0.649 2.157h0.854L11.781 4.741c-0.091-0.318-0.49-0.878-1.178-0.895l-1.958-0.002z m-6.408 0.647C1.003 4.491 0 3.487 0 2.253 0 1.019 1.003 0.015 2.237 0.015S4.475 1.019 4.475 2.253c0 1.235-1.005 2.238-2.238 2.238m0-0.554c0.928 0 1.685-0.755 1.685-1.685 0-0.928-0.757-1.684-1.685-1.684-0.928 0-1.683 0.756-1.683 1.684 0 0.93 0.755 1.684 1.683 1.685"></path><path d="M2.248 2.548a0.166 0.166 0 0 1-0.16-0.012 0.168 0.168 0 0 1-0.076-0.116L2.01 1.12a0.168 0.168 0 0 1 0.337 0v1.009l0.863-0.406a0.167 0.167 0 0 1 0.224 0.079c0.04 0.085 0.003 0.185-0.08 0.225l-1.105 0.521z"></path></g><g id="SvgjsG2180"><path d="M8.655 0C5.901 0 3.36 2.069 2.833 4.347 2.715 4.854 2.582 6.177 2.582 6.177L1.318 9.37A0.469 0.469 0 0 0 1.28 9.561a0.488 0.488 0 0 0 0.489 0.488h0.814v1.697c0 1.324 1.07 2.396 2.392 2.396h0.952V16h3.535v-0.829h1.44V16h1.503V10.847c1.413-1.111 2.322-2.838 2.322-4.774C14.726 2.718 12.01 0 8.655 0zM4.077 7.387a0.682 0.682 0 0 1-0.682-0.682c0-0.375 0.306-0.68 0.682-0.68a0.681 0.681 0 0 1 0.679 0.68c0 0.377-0.306 0.682-0.68 0.682z m5.385 4.46h1.44v0.779h-1.44v-0.779z m0-1.108h1.44v0.778h-1.44V10.739z m0 2.215h1.44v0.78h-1.44v-0.78z m0 1.109h1.44v0.78h-1.44V14.062z m0-4.431h1.448c-0.003 0.057-0.009 0.113-0.009 0.172v0.607h-1.44V9.632z m3.986-4.488a1.557 1.557 0 0 1-0.427 1.071c-0.045 0.592-0.42 1.091-0.942 1.316v0.005c-0.637 0.372-1.019 1.005-1.135 1.766H10.354v-1.765c0.004-0.55 0.177-0.902 0.539-1.119a1.907 1.907 0 0 0 0.356-0.26 1.229 1.229 0 0 1 0.659 0.556c0.032 0.053 0.088 0.083 0.144 0.082 0.027 0 0.055-0.007 0.08-0.021a0.163 0.163 0 0 0 0.064-0.224h-0.001a1.563 1.563 0 0 0-0.721-0.657c0.15-0.231 0.234-0.506 0.23-0.837 0-0.002 0.002-0.003 0.003-0.006 0-0.149-0.022-0.294-0.062-0.431a1.572 1.572 0 0 0 0.871-0.486 0.164 0.164 0 0 0-0.011-0.234 0.164 0.164 0 0 0-0.232 0.011 1.248 1.248 0 0 1-0.755 0.396c-0.24-0.444-0.686-0.76-1.209-0.818a1.235 1.235 0 0 1 0.353-0.724 0.166 0.166 0 0 0 0-0.233 0.166 0.166 0 0 0-0.234 0 1.572 1.572 0 0 0-0.45 0.937 1.244 1.244 0 0 1-1.088-1.234c0-0.09-0.075-0.165-0.163-0.165-0.093 0-0.166 0.075-0.167 0.165 0 0.107 0.01 0.21 0.031 0.31a1.24 1.24 0 0 1-1.235 0.229s-0.002 0-0.003-0.001a1.225 1.225 0 0 1-0.453-0.289c-0.063-0.064-0.168-0.064-0.233 0-0.065 0.064-0.065 0.168 0 0.233a1.59 1.59 0 0 0 0.452 0.316c-0.033 0.411-0.271 0.764-0.605 0.963a1.578 1.578 0 0 0-0.84-0.639 0.166 0.166 0 0 0-0.209 0.107c-0.024 0.087 0.02 0.179 0.108 0.207a1.247 1.247 0 0 1 0.63 0.455 1.221 1.221 0 0 1-0.32 0.042h-0.02a1.568 1.568 0 0 0-1.096 0.444 0.161 0.161 0 0 0-0.003 0.233 0.162 0.162 0 0 0 0.231 0.003 1.236 1.236 0 0 1 0.868-0.35h0.019c0.794 0 1.453-0.591 1.557-1.358 0.113 0.024 0.226 0.038 0.34 0.038A1.574 1.574 0 0 0 8.699 2.88a1.558 1.558 0 0 0 0.45 0.583 1.556 1.556 0 0 0-0.341 0.82 1.622 1.622 0 0 0-0.256-0.021 1.557 1.557 0 0 0-0.736 0.185c-0.08 0.043-0.111 0.142-0.068 0.224 0.03 0.055 0.088 0.087 0.147 0.087a0.144 0.144 0 0 0 0.075-0.02 1.25 1.25 0 0 1 0.583-0.146c0.087 0 0.173 0.01 0.256 0.027a1.576 1.576 0 0 0 0.428 0.92c0.033 0.034 0.076 0.051 0.118 0.051 0.04 0 0.082-0.015 0.115-0.046 0.067-0.063 0.069-0.167 0.005-0.232h-0.001a1.253 1.253 0 0 1-0.345-0.829c0-0.004 0.001-0.008 0-0.013v-0.018a1.237 1.237 0 0 1 0.299-0.81 1.57 1.57 0 0 0 0.701 0.166s0.001 0 0.003 0h0.003a1.244 1.244 0 0 1 1.241 1.24 1.566 1.566 0 0 0-0.401-0.052c-0.196 0-0.395 0.036-0.587 0.114a0.164 0.164 0 0 0-0.091 0.215c0.035 0.084 0.129 0.125 0.214 0.09a1.247 1.247 0 0 1 0.464-0.091c0.124 0 0.248 0.019 0.363 0.055a0.953 0.953 0 0 1-0.242 0.464 0.14 0.14 0 0 0-0.025 0.029c-0.094 0.092-0.207 0.177-0.346 0.262-0.477 0.278-0.706 0.784-0.701 1.403V9.301h-0.563V7.624c0-0.616-0.386-1.201-0.873-1.409-0.232-0.09-0.474-0.241-0.65-0.438a1.558 1.558 0 0 1-0.878 0.271 1.555 1.555 0 0 1-0.877-0.269 1.581 1.581 0 0 1-0.87 0.26c-0.883 0-1.596-0.715-1.597-1.597 0-0.659 0.398-1.224 0.969-1.467 0.154-0.703 0.777-1.229 1.527-1.23 0.04 0 0.076 0.003 0.113 0.006a1.567 1.567 0 0 1 1.295-0.684c0.266 0 0.516 0.066 0.736 0.185a1.558 1.558 0 0 1 1.925 0.158 1.553 1.553 0 0 1 0.365-0.044c0.633 0 1.18 0.381 1.424 0.926 0.642 0.195 1.11 0.79 1.11 1.496a1.576 1.576 0 0 1-0.054 0.408 1.561 1.561 0 0 1 0.321 0.948z"></path></g><g id="SvgjsG2181"><path d="M0.608 0.571a0.105 0.105 0 0 1 0.042-0.142L1.412 0.013a0.104 0.104 0 0 1 0.143 0.042l0.305 0.558c1.157-0.347 2.439 0.146 3.041 1.249l-1.478 0.807c0.244 0.447 0.079 1.009-0.369 1.254a0.926 0.926 0 0 1-1.255-0.368L0.32 4.361C-0.283 3.259-0.006 1.915 0.914 1.13L0.608 0.571z m10.416 10.055H16V15.77H11.024z m-0.57 2.571H6.435c-0.7 0-1.27-0.569-1.27-1.269 0-0.702 0.57-1.27 1.27-1.27h4.019v2.539z m-8.664 1.03a0.515 0.515 0 0 1 0.514-0.514h8.15V15.77h-8.664v-1.543z"></path><path d="M1.81 11.665a1.535 1.532 0 1 0 3.07 0 1.535 1.532 0 1 0-3.07 0"></path><path d="M13.27 7.373l-0.863-2.458c-0.167-0.463-0.489-0.825-1.397-0.825H7.024c-0.908 0-1.23 0.362-1.397 0.825l-0.863 2.458c-0.064 0.159-0.098 0.516 0.254 0.754l2.03 1.337a0.642 0.642 0 1 0 0.708-1.072l-0.976-0.643-0.635-0.419 0.453-1.251h0.628l-0.368 1.015 1.223 0.806a1.222 1.222 0 0 1 0.529 0.781 1.222 1.222 0 0 1-0.178 0.927 1.24 1.24 0 0 1-0.261 0.282H9.864a1.26 1.26 0 0 1-0.261-0.282 1.226 1.226 0 0 1-0.179-0.927 1.225 1.225 0 0 1 0.529-0.781l1.224-0.806-0.369-1.014h0.628l0.454 1.25-0.635 0.42-0.976 0.642c-0.296 0.195-0.379 0.595-0.183 0.891s0.595 0.378 0.892 0.182l2.029-1.337c0.351-0.239 0.318-0.596 0.254-0.755zM9.414 1.684a0.607 0.607 0 0 1-0.551 0.352 0.608 0.608 0 0 1-0.552-0.352h-1.112a1.688 1.688 0 0 0-0.029 0.3c0 0.937 0.761 1.696 1.699 1.696 0.938 0 1.699-0.759 1.699-1.696 0-0.103-0.011-0.203-0.029-0.3h-1.125zM8.273 1.283a0.608 0.608 0 0 1 0.59-0.459A0.607 0.607 0 0 1 9.451 1.283h0.963c-0.267-0.587-0.858-0.996-1.545-0.996-0.687 0-1.278 0.409-1.546 0.996h0.95z"></path></g><g id="SvgjsG2182"><path d="M10.596 3.917a0.64 0.64 0 0 0-0.639 0.641c0 0.354 0.287 0.64 0.639 0.64a0.639 0.639 0 0 0 0.639-0.64 0.639 0.639 0 0 0-0.639-0.641z m-0.151 5.25a0.642 0.642 0 0 0 0.643 0.641c0.352 0 0.638-0.286 0.637-0.64a0.639 0.639 0 0 0-0.637-0.641 0.641 0.641 0 0 0-0.642 0.641z m-4.678-5.945a0.641 0.641 0 0 0 0 1.282 0.64 0.64 0 0 0 0.642-0.64 0.641 0.641 0 0 0-0.642-0.642z"></path><path d="M8.659 0C5.904 0 3.363 2.068 2.835 4.347c-0.119 0.507-0.25 1.83-0.25 1.829L1.316 9.37A0.488 0.488 0 0 0 1.28 9.561a0.491 0.491 0 0 0 0.491 0.489h0.814v1.697c0 1.323 1.072 2.395 2.394 2.395h0.951V16H12.408V10.847c1.413-1.111 2.32-2.838 2.32-4.775C14.728 2.718 12.01 0 8.659 0z m-4.583 7.387c-0.372 0-0.675-0.304-0.675-0.679a0.677 0.677 0 0 1 0.675-0.677c0.375 0 0.68 0.303 0.68 0.677a0.68 0.68 0 0 1-0.68 0.679z m8.959-0.918l-0.631 0.632-0.77-0.543c-0.148 0.077-0.304 0.139-0.467 0.18l-0.142 0.838h0.294l0.079 0.448c0.031 0.008 0.062 0.013 0.092 0.024 0.079 0.029 0.152 0.067 0.22 0.11l0.355-0.25 0.292 0.291-0.262 0.371c0.056 0.1 0.101 0.206 0.125 0.318l0.429 0.074v0.412l-0.446 0.076c-0.009 0.032-0.013 0.063-0.024 0.094a1.147 1.147 0 0 1-0.112 0.223l0.251 0.353-0.292 0.291-0.369-0.262a1.149 1.149 0 0 1-0.318 0.126l-0.075 0.429H10.851l-0.074-0.448c-0.032-0.009-0.064-0.013-0.096-0.025a1.174 1.174 0 0 1-0.221-0.11l-0.356 0.252L9.815 10.08l0.262-0.37a1.151 1.151 0 0 1-0.125-0.319l-0.431-0.074v-0.411l0.45-0.077c0.008-0.032 0.013-0.063 0.025-0.094 0.029-0.079 0.066-0.152 0.109-0.22l-0.251-0.356 0.291-0.291 0.371 0.262a1.174 1.174 0 0 1 0.317-0.125l0.064-0.372h-0.776L9.96 6.704c-0.035-0.011-0.07-0.02-0.104-0.034a2.221 2.221 0 0 1-0.352-0.168l-0.744 0.524-0.63-0.632 0.542-0.767a2.184 2.184 0 0 1-0.181-0.469l-0.894-0.154V4.27l-0.449 0.078c-0.007 0.022-0.009 0.044-0.017 0.065a1.402 1.402 0 0 1-0.109 0.223l0.345 0.489-0.416 0.414-0.506-0.357a1.438 1.438 0 0 1-0.294 0.116l-0.102 0.586-0.584 0-0.106-0.611c-0.02-0.007-0.042-0.009-0.062-0.017a1.43 1.43 0 0 1-0.226-0.11l-0.49 0.345-0.414-0.415 0.359-0.508a1.485 1.485 0 0 1-0.112-0.291L3.824 4.176V3.589l0.608-0.105c0.007-0.022 0.012-0.043 0.02-0.063 0.029-0.08 0.068-0.154 0.109-0.225l-0.345-0.488 0.413-0.415 0.508 0.358a1.439 1.439 0 0 1 0.295-0.117l0.102-0.586h0.584L6.224 2.56c0.021 0.007 0.043 0.008 0.063 0.016 0.08 0.03 0.154 0.069 0.225 0.11l0.489-0.344 0.415 0.414-0.359 0.507a1.397 1.397 0 0 1 0.115 0.293l0.586 0.101v0.427l0.768-0.132c0.011-0.035 0.02-0.07 0.033-0.105 0.046-0.126 0.104-0.243 0.17-0.355l-0.528-0.74 0.634-0.633 0.77 0.544a2.192 2.192 0 0 1 0.468-0.181l0.151-0.894h0.894l0.162 0.928c0.035 0.01 0.069 0.02 0.104 0.033 0.124 0.046 0.241 0.104 0.352 0.168l0.743-0.523 0.629 0.631-0.542 0.77c0.077 0.148 0.138 0.304 0.18 0.466l0.895 0.154v0.894l-0.929 0.16c-0.011 0.035-0.02 0.07-0.032 0.104-0.046 0.125-0.104 0.242-0.17 0.353l0.525 0.743z"></path></g><g id="SvgjsG2183"><path d="M12.346 8.402l-4.199-0.691 0.602-0.429 1.009 0.14 1.007-0.14zM9.758 0.467c0.842 0 1.524 0.682 1.524 1.525 0 0.842-0.537 1.524-1.524 1.524-0.842 0-1.525-0.682-1.525-1.524 0-0.842 0.683-1.524 1.525-1.525z m0.379 11.017v3.684A0.832 0.832 0 0 0 10.97 16a0.832 0.832 0 0 0 0.832-0.832V11.484c0-0.459-0.372-0.832-0.832-0.832a0.833 0.833 0 0 0-0.833 0.832z m5.099 2.104a0.484 0.484 0 0 1-0.483 0.483h-2.552v-2.413h1.104V9.248a0.483 0.483 0 0 1 0.482-0.482h0.966a0.484 0.484 0 0 1 0.483 0.482v4.34z m-5.497 0.483H4.784a0.483 0.483 0 0 1-0.482-0.483V9.247c0-0.266 0.216-0.482 0.482-0.482h0.966a0.483 0.483 0 0 1 0.483 0.482v2.411h3.506v2.413zM7.13 8.866a0.833 0.833 0 0 0 0.686 0.956l3.635 0.599a0.833 0.833 0 0 0 0.956-0.686c0.075-0.453-0.232-0.882-0.686-0.956L8.086 8.18a0.833 0.833 0 0 0-0.956 0.685z m-4.099-4.563C1.845 4.303 0.88 3.338 0.88 2.152S1.845 0 3.031 0s2.152 0.965 2.152 2.152-0.966 2.151-2.152 2.151z m0-0.533c0.892 0 1.62-0.726 1.619-1.619 0-0.892-0.727-1.619-1.619-1.619-0.893 0-1.618 0.727-1.619 1.619 0 0.893 0.725 1.619 1.619 1.619z"></path><path d="M3.042 2.436a0.16 0.16 0 0 1-0.155-0.012 0.16 0.16 0 0 1-0.072-0.111L2.813 1.062a0.162 0.162 0 0 1 0.323 0v0.97l0.83-0.39a0.162 0.162 0 1 1 0.138 0.292l-1.062 0.502z m6.716 2.292l1.976-0.321v1.389l0.976 0.734c0.094 0.094 0.056 0.202 0.033 0.233-0.056 0.074-0.16 0.088-0.233 0.033l-1.231-0.931a0.565 0.565 0 0 0-0.652 0.924l2.103 1.478c0.098 0.069 0.237 0.116 0.376 0.116 0.118 0 0.257-0.049 0.361-0.123 0.221-0.157 0.302-0.435 0.226-0.691L12.912 5.26c-0.208-0.573-0.735-1.249-1.525-1.249H8.128c-0.79 0-1.316 0.675-1.525 1.249l-0.782 2.309c-0.075 0.256 0.007 0.534 0.228 0.691 0.103 0.074 0.242 0.123 0.36 0.123 0.139 0 0.278-0.046 0.376-0.116l2.103-1.478a0.565 0.565 0 0 0-0.652-0.924l-1.232 0.931a0.167 0.167 0 0 1-0.232-0.033c-0.022-0.03-0.061-0.138 0.033-0.233 0 0 0.661-0.497 0.976-0.734v-1.389l1.977 0.322z"></path></g><g id="SvgjsG2184"><path d="M8.028 8.66c1.197 0 1.752 0.909 1.869 2.199 0.028 0.309-0.001 0.759-0.041 1.281-0.134 1.732-0.289 3.86 0.864 3.86 0.975 0 1.476-1.871 1.766-4.004 0.279-2.112-0.016-3.162 0.129-4.1 0.277-1.777 1.828-3.37 1.349-5.634-0.265-1.256-0.957-1.848-1.643-2.096-1.579-0.575-2.598 0.533-4.293 0.533s-2.715-1.108-4.295-0.533C3.049 0.414 2.357 1.005 2.091 2.262c-0.478 2.265 1.072 3.858 1.35 5.634 0.145 0.938-0.15 1.988 0.129 4.1C3.859 14.128 4.36 16 5.335 16c1.153 0 0.999-2.128 0.864-3.86-0.04-0.521-0.068-0.971-0.041-1.28 0.116-1.291 0.679-2.2 1.87-2.2z"></path></g><g id="SvgjsG2185"><path d="M8 14.66l5.904-5.908c1.836-1.836 1.8-4.512 0.132-6.174A4.268 4.268 0 0 0 8 2.58a4.264 4.264 0 0 0-6.03-0.02C0.3 4.24 0.26 6.92 2.1 8.744L8 14.66z"></path></g><g id="SvgjsG2186"><path d="M7.634 3.849c0.822 0 1.487-0.665 1.487-1.485S8.456 0.88 7.634 0.88c-0.821 0-1.487 0.664-1.488 1.484s0.666 1.485 1.488 1.485zM12.166 13.885H0.308c-0.334 0-0.3 0.262-0.3 0.262v0.437s-0.03 0.568 0.553 0.568h14.848c0.587 0 0.555-0.555 0.555-0.555v-1.209s-0.05-0.383-0.5-0.383h-1.448c-0.496 0-0.906 0.88-1.851 0.88z m1.153-2.681c0 0.738 0.6 1.337 1.34 1.336 0.739 0 1.341-0.599 1.341-1.336 0-0.74-0.602-1.338-1.341-1.338-0.74 0-1.34 0.597-1.34 1.338zM8.939 8.653a0.953 0.953 0 0 1-0.573 0.596L7.173 9.691l0.44 0.437h2.015l-0.002-3.083-0.674 1.59c-0.003 0.008-0.009 0.012-0.013 0.018z"></path><path d="M11.832 10.861H7.667l-1.004-0.981-0.699 0.258c-0.518 0.185-1.15-0.098-1.345-0.613-0.115-0.32-0.099-0.677 0.093-0.937-0.086-0.004-2.526 0-2.526 0-0.406 0-0.736 0.326-0.736 0.731 0 0.406 0.33 0.723 0.736 0.723h2.484l0.986 1.491-5.087 0.409A0.734 0.734 0 0 0 0 12.657a0.734 0.734 0 0 0 0.733 0.736l5.707 0a1.044 1.044 0 0 1-0.159-0.549 1.054 1.054 0 0 1 1.053-1.054h2.283l1.852-0.386 0.102 0.491-1.901 0.397H7.335a0.551 0.551 0 0 0-0.551 0.552 0.55 0.55 0 0 0 0.54 0.549l4.518 0.001c0.699-0.005 1.26-0.569 1.26-1.266a1.267 1.267 0 0 0-1.27-1.267z"></path><path d="M5.876 9.678a0.582 0.582 0 0 1-0.767-0.299 0.582 0.582 0 0 1 0.299-0.768l2.12-0.796 0.656-1.563-0.427-0.158L7.2 7.433l-1.614 0.595V6.392l-1.578 1.723-1.786-0.002s3.125-3.426 3.223-3.528c0.13-0.129 0.426-0.342 0.984-0.341h2.006c1.14 0 1.36 1.137 1.127 1.724L8.512 8.513a0.591 0.591 0 0 1-0.338 0.319l-2.298 0.846z"></path></g><g id="SvgjsG2187"><path d="M8.43 3.58a1.188 1.188 0 0 0 0-2.372 1.186 1.186 0 0 0 0 2.372"></path><path d="M9.314 3.844h-1.73L4.634 0.894A0.6 0.6 0 0 0 3.78 0.874a0.6 0.6 0 0 0-0.024 0.856l3.08 3.086v10.228a0.664 0.664 0 0 0 1.334 0V9.496h0.54v5.548c0 0.37 0.304 0.668 0.67 0.668 0.368 0 0.664-0.3 0.664-0.668L10.04 4.816 13.12 1.73a0.6 0.6 0 0 0-0.02-0.854 0.6 0.6 0 0 0-0.856 0.02L9.314 3.84z"></path></g><g id="SvgjsG2188"><use xlink:href="#SvgjsG2176" transform="translate(0, 0) scale(2.6)" fill="#0f457b"></use><use xlink:href="#SvgjsG2177" transform="translate(0, 70.2) scale(2.6)" fill="#0f457b"></use><use xlink:href="#SvgjsG2178" transform="translate(0, 140.4) scale(2.6)" fill="#0f457b"></use><use xlink:href="#SvgjsG2179" transform="translate(0, 210.60000000000002) scale(2.6)" fill="#0f457b"></use><use xlink:href="#SvgjsG2180" transform="translate(0, 280.8) scale(2.6)" fill="#0f457b"></use><use xlink:href="#SvgjsG2181" transform="translate(0, 351) scale(2.6)" fill="#0f457b"></use><use xlink:href="#SvgjsG2182" transform="translate(0, 421.20000000000005) scale(2.6)" fill="#0f457b"></use><use xlink:href="#SvgjsG2183" transform="translate(0, 491.40000000000003) scale(2.6)" fill="#0f457b"></use><use xlink:href="#SvgjsG2177" transform="translate(70.2, 0) scale(2.6)" fill="#0f457b"></use><use xlink:href="#SvgjsG2178" transform="translate(70.2, 70.2) scale(2.6)" fill="#0f457b"></use><use xlink:href="#SvgjsG2179" transform="translate(70.2, 140.4) scale(2.6)" fill="#0f457b"></use><use xlink:href="#SvgjsG2180" transform="translate(70.2, 210.60000000000002) scale(2.6)" fill="#0f457b"></use><use xlink:href="#SvgjsG2181" transform="translate(70.2, 280.8) scale(2.6)" fill="#0f457b"></use><use xlink:href="#SvgjsG2182" transform="translate(70.2, 351) scale(2.6)" fill="#0f457b"></use><use xlink:href="#SvgjsG2183" transform="translate(70.2, 421.20000000000005) scale(2.6)" fill="#0f457b"></use><use xlink:href="#SvgjsG2184" transform="translate(70.2, 491.40000000000003) scale(2.6)" fill="#0f457b"></use><use xlink:href="#SvgjsG2178" transform="translate(140.4, 0) scale(2.6)" fill="#0f457b"></use><use xlink:href="#SvgjsG2179" transform="translate(140.4, 70.2) scale(2.6)" fill="#0f457b"></use><use xlink:href="#SvgjsG2180" transform="translate(140.4, 140.4) scale(2.6)" fill="#0f457b"></use><use xlink:href="#SvgjsG2181" transform="translate(140.4, 210.60000000000002) scale(2.6)" fill="#0f457b"></use><use xlink:href="#SvgjsG2182" transform="translate(140.4, 280.8) scale(2.6)" fill="#0f457b"></use><use xlink:href="#SvgjsG2183" transform="translate(140.4, 351) scale(2.6)" fill="#0f457b"></use><use xlink:href="#SvgjsG2184" transform="translate(140.4, 421.20000000000005) scale(2.6)" fill="#0f457b"></use><use xlink:href="#SvgjsG2185" transform="translate(140.4, 491.40000000000003) scale(2.6)" fill="#0f457b"></use><use xlink:href="#SvgjsG2179" transform="translate(210.60000000000002, 0) scale(2.6)" fill="#0f457b"></use><use xlink:href="#SvgjsG2180" transform="translate(210.60000000000002, 70.2) scale(2.6)" fill="#0f457b"></use><use xlink:href="#SvgjsG2181" transform="translate(210.60000000000002, 140.4) scale(2.6)" fill="#0f457b"></use><use xlink:href="#SvgjsG2182" transform="translate(210.60000000000002, 210.60000000000002) scale(2.6)" fill="#0f457b"></use><use xlink:href="#SvgjsG2183" transform="translate(210.60000000000002, 280.8) scale(2.6)" fill="#0f457b"></use><use xlink:href="#SvgjsG2184" transform="translate(210.60000000000002, 351) scale(2.6)" fill="#0f457b"></use><use xlink:href="#SvgjsG2185" transform="translate(210.60000000000002, 421.20000000000005) scale(2.6)" fill="#0f457b"></use><use xlink:href="#SvgjsG2186" transform="translate(210.60000000000002, 491.40000000000003) scale(2.6)" fill="#0f457b"></use><use xlink:href="#SvgjsG2180" transform="translate(280.8, 0) scale(2.6)" fill="#0f457b"></use><use xlink:href="#SvgjsG2181" transform="translate(280.8, 70.2) scale(2.6)" fill="#0f457b"></use><use xlink:href="#SvgjsG2182" transform="translate(280.8, 140.4) scale(2.6)" fill="#0f457b"></use><use xlink:href="#SvgjsG2183" transform="translate(280.8, 210.60000000000002) scale(2.6)" fill="#0f457b"></use><use xlink:href="#SvgjsG2184" transform="translate(280.8, 280.8) scale(2.6)" fill="#0f457b"></use><use xlink:href="#SvgjsG2185" transform="translate(280.8, 351) scale(2.6)" fill="#0f457b"></use><use xlink:href="#SvgjsG2186" transform="translate(280.8, 421.20000000000005) scale(2.6)" fill="#0f457b"></use><use xlink:href="#SvgjsG2187" transform="translate(280.8, 491.40000000000003) scale(2.6)" fill="#0f457b"></use><use xlink:href="#SvgjsG2181" transform="translate(351, 0) scale(2.6)" fill="#0f457b"></use><use xlink:href="#SvgjsG2182" transform="translate(351, 70.2) scale(2.6)" fill="#0f457b"></use><use xlink:href="#SvgjsG2183" transform="translate(351, 140.4) scale(2.6)" fill="#0f457b"></use><use xlink:href="#SvgjsG2184" transform="translate(351, 210.60000000000002) scale(2.6)" fill="#0f457b"></use><use xlink:href="#SvgjsG2185" transform="translate(351, 280.8) scale(2.6)" fill="#0f457b"></use><use xlink:href="#SvgjsG2186" transform="translate(351, 351) scale(2.6)" fill="#0f457b"></use><use xlink:href="#SvgjsG2187" transform="translate(351, 421.20000000000005) scale(2.6)" fill="#0f457b"></use><use xlink:href="#SvgjsG2176" transform="translate(351, 491.40000000000003) scale(2.6)" fill="#0f457b"></use><use xlink:href="#SvgjsG2182" transform="translate(421.20000000000005, 0) scale(2.6)" fill="#0f457b"></use><use xlink:href="#SvgjsG2183" transform="translate(421.20000000000005, 70.2) scale(2.6)" fill="#0f457b"></use><use xlink:href="#SvgjsG2184" transform="translate(421.20000000000005, 140.4) scale(2.6)" fill="#0f457b"></use><use xlink:href="#SvgjsG2185" transform="translate(421.20000000000005, 210.60000000000002) scale(2.6)" fill="#0f457b"></use><use xlink:href="#SvgjsG2186" transform="translate(421.20000000000005, 280.8) scale(2.6)" fill="#0f457b"></use><use xlink:href="#SvgjsG2187" transform="translate(421.20000000000005, 351) scale(2.6)" fill="#0f457b"></use><use xlink:href="#SvgjsG2176" transform="translate(421.20000000000005, 421.20000000000005) scale(2.6)" fill="#0f457b"></use><use xlink:href="#SvgjsG2177" transform="translate(421.20000000000005, 491.40000000000003) scale(2.6)" fill="#0f457b"></use><use xlink:href="#SvgjsG2183" transform="translate(491.40000000000003, 0) scale(2.6)" fill="#0f457b"></use><use xlink:href="#SvgjsG2184" transform="translate(491.40000000000003, 70.2) scale(2.6)" fill="#0f457b"></use><use xlink:href="#SvgjsG2185" transform="translate(491.40000000000003, 140.4) scale(2.6)" fill="#0f457b"></use><use xlink:href="#SvgjsG2186" transform="translate(491.40000000000003, 210.60000000000002) scale(2.6)" fill="#0f457b"></use><use xlink:href="#SvgjsG2187" transform="translate(491.40000000000003, 280.8) scale(2.6)" fill="#0f457b"></use><use xlink:href="#SvgjsG2176" transform="translate(491.40000000000003, 351) scale(2.6)" fill="#0f457b"></use><use xlink:href="#SvgjsG2177" transform="translate(491.40000000000003, 421.20000000000005) scale(2.6)" fill="#0f457b"></use><use xlink:href="#SvgjsG2178" transform="translate(491.40000000000003, 491.40000000000003) scale(2.6)" fill="#0f457b"></use><use xlink:href="#SvgjsG2184" transform="translate(561.6, 0) scale(2.6)" fill="#0f457b"></use><use xlink:href="#SvgjsG2185" transform="translate(561.6, 70.2) scale(2.6)" fill="#0f457b"></use><use xlink:href="#SvgjsG2186" transform="translate(561.6, 140.4) scale(2.6)" fill="#0f457b"></use><use xlink:href="#SvgjsG2187" transform="translate(561.6, 210.60000000000002) scale(2.6)" fill="#0f457b"></use><use xlink:href="#SvgjsG2176" transform="translate(561.6, 280.8) scale(2.6)" fill="#0f457b"></use><use xlink:href="#SvgjsG2177" transform="translate(561.6, 351) scale(2.6)" fill="#0f457b"></use><use xlink:href="#SvgjsG2178" transform="translate(561.6, 421.20000000000005) scale(2.6)" fill="#0f457b"></use><use xlink:href="#SvgjsG2179" transform="translate(561.6, 491.40000000000003) scale(2.6)" fill="#0f457b"></use><use xlink:href="#SvgjsG2185" transform="translate(631.8000000000001, 0) scale(2.6)" fill="#0f457b"></use><use xlink:href="#SvgjsG2186" transform="translate(631.8000000000001, 70.2) scale(2.6)" fill="#0f457b"></use><use xlink:href="#SvgjsG2187" transform="translate(631.8000000000001, 140.4) scale(2.6)" fill="#0f457b"></use><use xlink:href="#SvgjsG2176" transform="translate(631.8000000000001, 210.60000000000002) scale(2.6)" fill="#0f457b"></use><use xlink:href="#SvgjsG2177" transform="translate(631.8000000000001, 280.8) scale(2.6)" fill="#0f457b"></use><use xlink:href="#SvgjsG2178" transform="translate(631.8000000000001, 351) scale(2.6)" fill="#0f457b"></use><use xlink:href="#SvgjsG2179" transform="translate(631.8000000000001, 421.20000000000005) scale(2.6)" fill="#0f457b"></use><use xlink:href="#SvgjsG2180" transform="translate(631.8000000000001, 491.40000000000003) scale(2.6)" fill="#0f457b"></use></g></defs></svg>