<svg version="1.1" id="Layer_1" xmlns="http://www.w3.org/2000/svg" xmlns:xlink="http://www.w3.org/1999/xlink" x="0px" y="0px"
	 width="100%" viewBox="0 0 500 500" enable-background="new 0 0 500 500" xml:space="preserve">
<path fill="#000000" opacity="1.000000" stroke="none" 
	d="
M155.000000,501.000000 
	C103.678909,501.000000 52.357822,501.000000 1.018367,501.000000 
	C1.018367,334.385345 1.018367,167.770676 1.018367,1.078002 
	C167.574875,1.078002 334.149811,1.078002 500.862366,1.078002 
	C500.862366,167.666595 500.862366,334.333282 500.862366,501.000000 
	C448.907135,501.000000 396.919586,501.000000 344.426575,500.628326 
	C344.572754,499.824066 345.171478,499.254608 345.883850,498.979034 
	C359.656433,493.652374 368.438385,482.940186 376.414307,470.870789 
	C384.213226,460.317474 391.859863,450.024841 399.170227,439.498688 
	C403.089386,433.855438 406.430176,427.810516 410.342590,422.091858 
	C414.203369,428.130951 419.359711,431.874146 426.008850,433.509918 
	C437.822449,436.416199 450.237061,429.379761 453.737366,419.206726 
	C459.488739,402.491241 448.902039,387.434296 431.225159,385.568695 
	C434.482727,378.684235 437.985718,372.265472 440.674316,365.522003 
	C446.288330,351.441437 451.472382,337.189423 456.925262,322.635956 
	C459.348938,314.510345 461.932953,306.822174 463.964203,298.990601 
	C469.861389,276.253601 474.440735,253.262939 476.055206,229.775375 
	C477.053650,215.249588 478.591003,200.710938 478.576355,186.179382 
	C478.561523,171.476730 477.290680,156.742233 475.921387,142.082260 
	C474.105438,122.640175 468.994232,104.073532 459.006714,87.089066 
	C449.997009,71.767456 437.052277,60.537094 421.311890,52.797493 
	C394.873657,39.797726 367.103424,39.360626 338.881165,45.566643 
	C318.945801,49.950382 300.748810,58.755409 282.815521,68.111160 
	C277.881348,70.685303 273.376556,74.082481 268.296722,77.141876 
	C255.769806,84.453308 243.628510,91.737617 231.470154,98.993340 
	C214.902847,108.880188 198.427673,118.952118 179.709473,125.089478 
	C178.990448,124.690262 178.553635,124.366501 178.474030,123.995102 
	C183.572418,121.669312 188.313599,119.391167 193.404114,117.045372 
	C200.127213,113.569794 205.826447,109.580688 208.093506,102.129929 
	C211.052261,92.405800 207.194443,84.255676 202.012711,76.654755 
	C194.877228,66.187950 184.762329,58.921356 173.569946,53.522896 
	C162.731735,48.295258 151.300934,44.400764 138.627396,43.956985 
	C131.498138,43.557217 124.742149,43.360893 117.574280,43.159904 
	C116.209419,43.418400 115.266487,43.864273 114.301933,43.917412 
	C98.767303,44.773266 84.653297,49.909870 71.399742,57.838955 
	C60.291729,64.484444 51.001072,72.981003 43.679485,84.086472 
	C42.243011,86.281342 41.074520,88.261955 39.926258,90.254227 
	C28.940434,109.315079 25.400349,130.307236 23.731712,151.958496 
	C23.374317,152.370773 23.243631,152.667526 23.073404,153.343933 
	C23.077152,154.484100 23.120440,155.244644 23.109444,156.470779 
	C22.580351,182.061874 22.799925,207.149338 27.121876,232.419312 
	C28.370007,239.787003 29.382284,246.811279 31.005920,253.691254 
	C36.679707,277.733368 41.623745,302.002686 48.592621,325.671143 
	C58.729782,360.100037 72.666885,393.130310 90.274734,424.483185 
	C95.517990,433.819397 101.236412,442.930298 107.322845,451.739716 
	C113.309273,460.404388 119.471001,469.080170 126.594063,476.792084 
	C134.574249,485.431976 141.860413,495.284088 153.871506,499.191345 
	C154.389023,499.359711 154.630142,500.377747 155.000000,501.000000 
z"/>
<path fill="#40724B" opacity="1.000000" stroke="none" 
	d="
M155.463181,501.000000 
	C154.630142,500.377747 154.389023,499.359711 153.871506,499.191345 
	C141.860413,495.284088 134.574249,485.431976 126.594063,476.792084 
	C119.471001,469.080170 113.309273,460.404388 107.322845,451.739716 
	C101.236412,442.930298 95.517990,433.819397 90.274734,424.483185 
	C72.666885,393.130310 58.729782,360.100037 48.592621,325.671143 
	C41.623745,302.002686 36.679707,277.733368 31.005920,253.691254 
	C29.382284,246.811279 28.370007,239.787003 27.382294,232.613174 
	C28.858063,233.982956 29.957323,235.627747 31.212307,237.143646 
	C36.435806,243.453232 41.706215,249.723969 47.107357,256.348389 
	C51.511131,270.102386 55.766968,283.517029 60.029079,297.331604 
	C63.064175,305.035980 65.631126,312.579559 69.254112,319.576324 
	C72.747276,326.322418 78.263397,331.794769 85.662094,334.038788 
	C92.062347,335.979980 96.132500,339.209320 97.028427,346.421631 
	C97.017059,355.857880 96.945274,364.822906 97.018959,373.786682 
	C97.203529,396.239807 113.718864,412.788422 136.131409,412.981140 
	C147.087082,413.075348 158.043777,413.052338 169.080704,413.426819 
	C169.952209,415.394958 170.508041,417.194489 171.570953,418.614502 
	C180.094345,430.001373 188.642166,441.371887 197.359802,452.609894 
	C199.243927,455.038635 201.844635,456.911530 204.052704,459.391083 
	C200.681000,464.799896 197.743713,470.156769 193.976562,474.847107 
	C188.164642,482.083221 181.919785,488.989838 175.567383,495.763092 
	C173.515915,497.950470 170.548447,499.278748 168.000000,501.000000 
	C163.975449,501.000000 159.950912,501.000000 155.463181,501.000000 
z"/>
<path fill="#000000" opacity="1.000000" stroke="none" 
	d="
M168.468658,501.000000 
	C170.548447,499.278748 173.515915,497.950470 175.567383,495.763092 
	C181.919785,488.989838 188.164642,482.083221 193.976562,474.847107 
	C197.743713,470.156769 200.681000,464.799896 204.319763,459.197632 
	C205.468231,457.118958 206.287064,455.584320 207.349670,453.882629 
	C207.768219,453.156219 207.942978,452.596954 208.417267,451.869934 
	C213.490997,441.927948 218.387405,432.210938 222.999832,422.360931 
	C226.547195,414.785370 228.617767,406.366791 235.962463,401.460114 
	C241.520294,423.869812 247.015854,445.892029 252.454559,467.686401 
	C256.176697,468.442383 257.923096,467.614624 258.126770,463.863831 
	C258.302429,460.629272 259.337311,457.439545 260.013397,454.234436 
	C262.640991,441.777802 265.276978,429.322968 268.203552,417.058472 
	C268.824707,417.821533 269.117523,418.416809 269.484467,418.962250 
	C283.168823,439.303925 296.881622,459.626526 310.539673,479.985870 
	C315.891327,487.963318 320.983704,496.159149 330.706726,499.655731 
	C330.936005,499.738159 330.907990,500.535889 331.000000,501.000000 
	C276.979095,501.000000 222.958206,501.000000 168.468658,501.000000 
z"/>
<path fill="#3C684C" opacity="1.000000" stroke="none" 
	d="
M331.463196,501.000000 
	C330.907990,500.535889 330.936005,499.738159 330.706726,499.655731 
	C320.983704,496.159149 315.891327,487.963318 310.539673,479.985870 
	C296.881622,459.626526 283.168823,439.303925 269.484467,418.962250 
	C269.117523,418.416809 268.824707,417.821533 268.218140,416.652039 
	C267.924835,414.699982 267.910706,413.345459 268.037537,411.638031 
	C268.954712,408.516479 269.730957,405.747833 270.774811,402.024628 
	C271.593262,403.652863 271.966919,404.193573 272.150299,404.792572 
	C273.906006,410.527588 275.497864,416.318085 277.459900,421.980652 
	C277.919128,423.306030 279.462585,424.787659 280.769165,425.099365 
	C281.631531,425.305115 283.130341,423.691803 284.033844,422.629059 
	C284.874725,421.640015 285.433441,420.349335 285.892639,419.108643 
	C287.561615,414.599091 290.661652,412.822601 295.513672,412.934875 
	C306.672485,413.193054 317.840271,413.066010 329.116272,413.421997 
	C329.921753,415.066864 330.450256,416.509155 331.333740,417.684540 
	C343.813873,434.287567 356.248230,450.927338 368.985016,467.332031 
	C370.477570,469.254395 373.701050,469.832855 376.122101,471.034332 
	C368.438385,482.940186 359.656433,493.652374 345.883850,498.979034 
	C345.171478,499.254608 344.572754,499.824066 343.960571,500.628326 
	C339.975464,501.000000 335.950897,501.000000 331.463196,501.000000 
z"/>
<path fill="#34584E" opacity="1.000000" stroke="none" 
	d="
M268.674744,77.102020 
	C273.376556,74.082481 277.881348,70.685303 282.815521,68.111160 
	C300.748810,58.755409 318.945801,49.950382 338.881165,45.566643 
	C367.103424,39.360626 394.873657,39.797726 421.311890,52.797493 
	C437.052277,60.537094 449.997009,71.767456 459.006714,87.089066 
	C468.994232,104.073532 474.105438,122.640175 475.921387,142.082260 
	C477.290680,156.742233 478.561523,171.476730 478.576355,186.179382 
	C478.591003,200.710938 477.053650,215.249588 476.055206,229.775375 
	C474.440735,253.262939 469.861389,276.253601 463.964203,298.990601 
	C461.932953,306.822174 459.348938,314.510345 456.592407,322.548706 
	C454.266602,321.312744 451.955933,320.103851 450.526611,318.224640 
	C428.497528,289.262085 406.561432,260.228577 384.687561,231.148544 
	C383.127441,229.074448 382.218323,226.510651 381.357544,224.249802 
	C387.169312,226.792892 392.630066,229.260727 398.496887,231.912094 
	C399.391663,229.004852 397.078247,227.187973 394.818054,226.416153 
	C387.636261,223.963745 380.289520,221.994324 372.873444,219.528351 
	C370.798218,216.327728 368.989197,213.336517 366.893982,210.561340 
	C335.743073,169.301819 304.521179,128.095825 273.447296,86.778458 
	C271.323151,83.954056 270.241302,80.345757 268.674744,77.102020 
z"/>
<path fill="#3A664C" opacity="1.000000" stroke="none" 
	d="
M43.956860,83.877632 
	C51.001072,72.981003 60.291729,64.484444 71.399742,57.838955 
	C84.653297,49.909870 98.767303,44.773266 114.301933,43.917412 
	C115.266487,43.864273 116.209419,43.418400 117.506882,43.492081 
	C118.637283,46.420395 118.783585,49.489479 120.307281,51.530056 
	C137.003296,73.889748 153.856308,96.133423 170.850525,118.267448 
	C172.678696,120.648560 175.666794,122.139099 178.116821,124.042747 
	C178.553635,124.366501 178.990448,124.690262 179.722595,125.485283 
	C181.188400,128.981400 181.854462,132.347488 183.625748,134.965881 
	C188.546326,142.239624 193.926483,149.202438 199.094757,156.464600 
	C199.064423,156.641083 198.984940,156.990311 198.674408,157.138153 
	C197.905640,157.758728 197.518967,158.344070 196.978546,158.687485 
	C186.956879,165.055908 175.165070,169.724869 173.137695,183.712570 
	C173.115494,183.865707 172.986679,184.006531 172.897049,184.146332 
	C166.462936,194.184616 163.468292,205.321838 164.183258,217.061401 
	C164.696304,225.485977 165.857315,234.136185 168.524963,242.082916 
	C170.771255,248.774460 175.125153,254.964218 179.478989,260.663422 
	C181.987915,263.947632 186.327637,265.847595 189.881577,268.315491 
	C194.275589,271.366730 198.709320,274.360718 203.128387,277.625183 
	C209.962402,279.586914 216.707718,282.053650 223.644852,282.850342 
	C235.276276,284.186218 246.660080,281.483368 258.217072,278.952087 
	C267.501068,287.386444 276.501465,295.622192 285.501831,303.857941 
	C281.800995,305.019440 278.550171,304.418488 275.649750,305.169952 
	C271.935608,306.132233 268.106201,307.648926 265.059845,309.913361 
	C261.900360,312.261871 262.414581,315.874603 265.917755,317.686829 
	C275.827332,322.813263 286.508179,324.224792 297.427460,322.312225 
	C302.015808,321.508575 303.108307,317.943756 300.410004,313.965240 
	C298.653717,311.375671 296.466553,309.011810 294.176208,306.862457 
	C283.498444,296.842133 272.717621,286.931702 262.071960,276.724396 
	C261.439453,276.045837 260.708618,275.624847 259.782623,274.922058 
	C248.201675,260.636536 248.611008,252.366348 261.241821,242.381393 
	C262.524323,241.367538 264.019135,240.622177 265.702759,239.983902 
	C274.860107,251.631012 283.836121,262.965881 292.580170,274.476959 
	C318.834503,309.039581 345.036255,343.642365 371.172607,378.294250 
	C378.274475,387.709961 385.072479,397.354797 391.540680,406.917816 
	C359.583893,406.960114 328.096375,406.969421 296.608856,407.006744 
	C290.839111,407.013580 284.524567,405.764130 281.655579,413.738892 
	C280.406067,411.562805 279.736847,409.952698 279.236877,408.291626 
	C277.364716,402.071228 275.679871,395.789886 273.615997,389.634979 
	C273.111176,388.129486 271.433289,387.017334 270.294739,385.724335 
	C269.172241,387.171326 267.450073,388.464844 267.033386,390.092499 
	C265.423889,396.379486 264.230988,402.773102 262.608276,408.927094 
	C261.382477,407.187683 260.538208,405.568512 259.461853,404.122070 
	C254.106659,396.925415 248.629105,394.845001 241.005493,397.066833 
	C240.885849,397.077637 240.647202,397.049774 240.648438,396.654480 
	C237.568283,383.176941 234.609802,370.063141 231.270508,357.047058 
	C230.780533,355.137207 228.480682,353.691650 226.831192,351.748077 
	C203.609650,321.011169 180.600418,290.538177 157.475311,260.153412 
	C156.147202,258.408356 153.874466,257.382233 152.157471,255.661499 
	C154.845123,241.757217 158.324646,228.305786 159.721664,214.641418 
	C161.006195,202.077469 154.679550,195.004166 142.071243,192.721146 
	C135.412140,191.515396 128.513824,191.630814 121.434753,191.117493 
	C120.766640,191.008255 120.387283,190.931290 119.925034,190.513733 
	C118.446136,187.742065 117.290619,185.129944 115.617729,182.907242 
	C93.424423,153.419785 71.100410,124.030418 48.997456,94.475632 
	C46.700474,91.404236 45.608135,87.431931 43.956860,83.877632 
z"/>
<path fill="#375F4D" opacity="1.000000" stroke="none" 
	d="
M392.009949,406.894501 
	C385.072479,397.354797 378.274475,387.709961 371.172607,378.294250 
	C345.036255,343.642365 318.834503,309.039581 292.580170,274.476959 
	C283.836121,262.965881 274.860107,251.631012 265.994324,239.758362 
	C276.111420,232.818008 287.382538,229.073090 299.034424,227.210129 
	C313.912262,224.831421 328.950684,222.857803 343.983215,222.232666 
	C356.276123,221.721436 368.661896,223.442917 381.006500,224.174561 
	C382.218323,226.510651 383.127441,229.074448 384.687561,231.148544 
	C406.561432,260.228577 428.497528,289.262085 450.526611,318.224640 
	C451.955933,320.103851 454.266602,321.312744 456.500183,322.920654 
	C451.472382,337.189423 446.288330,351.441437 440.674316,365.522003 
	C437.985718,372.265472 434.482727,378.684235 430.840149,385.654449 
	C418.350464,388.176636 410.298431,394.521759 407.422058,406.938568 
	C401.979675,406.931244 396.994812,406.912872 392.009949,406.894501 
z"/>
<path fill="#3D6C4C" opacity="1.000000" stroke="none" 
	d="
M43.679485,84.086472 
	C45.608135,87.431931 46.700474,91.404236 48.997456,94.475632 
	C71.100410,124.030418 93.424423,153.419785 115.617729,182.907242 
	C117.290619,185.129944 118.446136,187.742065 119.522583,190.498413 
	C116.728508,190.658279 114.213921,190.141571 111.789848,190.418198 
	C108.893837,190.748672 106.675583,192.429840 107.250290,195.793045 
	C107.857491,199.346481 110.512962,200.417068 113.611229,199.518524 
	C116.449760,198.695297 119.083076,197.164490 122.286896,195.953583 
	C128.253922,196.120575 133.816345,195.759003 139.212875,196.541489 
	C152.402054,198.453918 157.710068,205.310181 155.457504,218.395508 
	C153.118134,231.984924 150.148041,245.495331 146.771423,258.867981 
	C143.638748,271.274506 139.605545,283.453613 135.694946,295.768982 
	C134.278534,297.503784 132.943741,299.105499 132.029205,300.919159 
	C129.196701,306.536469 126.917610,312.468201 123.715630,317.857178 
	C114.115486,334.014435 86.972984,334.724792 76.562874,318.614624 
	C73.081429,313.226898 70.752602,307.100525 67.801094,301.361053 
	C66.696739,299.213531 65.319649,297.206238 63.961609,294.764343 
	C60.354980,283.455963 56.558117,272.602173 53.422558,261.560547 
	C48.879642,245.563019 43.962936,229.578735 44.041023,212.692307 
	C44.080666,204.119553 47.365284,199.388824 55.765320,197.745636 
	C62.712738,196.386627 69.947617,196.497131 77.395737,196.059601 
	C80.309181,197.250412 82.825050,198.511124 85.469315,199.381973 
	C88.753639,200.463593 91.674141,199.550217 92.468559,195.998215 
	C93.337906,192.111206 90.257195,190.461594 87.203987,190.407089 
	C83.843346,190.347092 80.462181,191.437088 76.689865,191.908203 
	C67.864807,192.545212 59.439831,193.300110 50.886574,193.729950 
	C47.713287,189.100937 44.748741,184.737274 41.606140,180.505829 
	C35.511581,172.299652 29.316910,164.167831 23.163725,156.005188 
	C23.120440,155.244644 23.077152,154.484100 23.219257,153.160828 
	C23.594858,152.350510 23.779448,152.098816 23.958420,151.843002 
	C25.400349,130.307236 28.940434,109.315079 39.926258,90.254227 
	C41.074520,88.261955 42.243011,86.281342 43.679485,84.086472 
z"/>
<path fill="#38604D" opacity="1.000000" stroke="none" 
	d="
M199.125076,156.288101 
	C193.926483,149.202438 188.546326,142.239624 183.625748,134.965881 
	C181.854462,132.347488 181.188400,128.981400 180.004807,125.560745 
	C198.427673,118.952118 214.902847,108.880188 231.470154,98.993340 
	C243.628510,91.737617 255.769806,84.453308 268.296722,77.141876 
	C270.241302,80.345757 271.323151,83.954056 273.447296,86.778458 
	C304.521179,128.095825 335.743073,169.301819 366.893982,210.561340 
	C368.989197,213.336517 370.798218,216.327728 372.447235,219.553589 
	C361.351410,219.588287 350.532166,218.757294 339.749237,219.092697 
	C313.474976,219.909973 287.717834,223.483200 263.877228,235.779846 
	C262.106995,233.157578 260.578308,230.782715 258.884369,228.532303 
	C244.309570,209.169907 229.676102,189.851608 215.148697,170.453812 
	C213.487823,168.236130 212.370758,165.611191 211.384552,163.071869 
	C228.590561,157.709335 244.678467,160.051437 260.022156,168.087128 
	C269.452972,173.026154 269.329529,173.270340 276.559601,166.208160 
	C276.755981,166.016342 276.723572,165.590302 276.932373,164.699646 
	C275.792847,163.742004 274.581146,162.388321 273.087433,161.519455 
	C254.944443,150.966095 235.773132,146.618729 214.730865,152.114456 
	C213.950363,152.346146 213.460907,152.604843 212.708893,152.994690 
	C211.970078,153.464081 211.493835,153.802307 210.679718,154.088196 
	C209.889145,154.066513 209.436417,154.097183 208.756927,154.075195 
	C208.530182,154.022552 208.070007,153.951721 207.816910,153.714203 
	C204.750900,154.413818 201.937988,155.350952 199.125076,156.288101 
z"/>
<path fill="#3A654C" opacity="1.000000" stroke="none" 
	d="
M376.414307,470.870789 
	C373.701050,469.832855 370.477570,469.254395 368.985016,467.332031 
	C356.248230,450.927338 343.813873,434.287567 331.333740,417.684540 
	C330.450256,416.509155 329.921753,415.066864 329.584229,413.402039 
	C355.920624,413.059235 381.900909,413.063141 407.944977,413.446045 
	C408.683136,416.532288 409.357513,419.239563 410.031921,421.946838 
	C406.430176,427.810516 403.089386,433.855438 399.170227,439.498688 
	C391.859863,450.024841 384.213226,460.317474 376.414307,470.870789 
z"/>
<path fill="#38604D" opacity="1.000000" stroke="none" 
	d="
M139.000656,44.160427 
	C151.300934,44.400764 162.731735,48.295258 173.569946,53.522896 
	C184.762329,58.921356 194.877228,66.187950 202.012711,76.654755 
	C207.194443,84.255676 211.052261,92.405800 208.093506,102.129929 
	C205.826447,109.580688 200.127213,113.569794 193.266434,116.711029 
	C191.338669,113.836029 190.170441,111.025513 188.410629,108.653961 
	C180.184052,97.567459 171.849792,86.559464 163.447083,75.605453 
	C155.366516,65.071434 147.154755,54.638042 139.000656,44.160427 
z"/>
<path fill="#38604D" opacity="1.000000" stroke="none" 
	d="
M138.627396,43.956985 
	C147.154755,54.638042 155.366516,65.071434 163.447083,75.605453 
	C171.849792,86.559464 180.184052,97.567459 188.410629,108.653961 
	C190.170441,111.025513 191.338669,113.836029 192.917099,116.778671 
	C188.313599,119.391167 183.572418,121.669312 178.474030,123.995102 
	C175.666794,122.139099 172.678696,120.648560 170.850525,118.267448 
	C153.856308,96.133423 137.003296,73.889748 120.307281,51.530056 
	C118.783585,49.489479 118.637283,46.420395 117.918762,43.496742 
	C124.742149,43.360893 131.498138,43.557217 138.627396,43.956985 
z"/>
<path fill="#3E6E4C" opacity="1.000000" stroke="none" 
	d="
M23.109440,156.470779 
	C29.316910,164.167831 35.511581,172.299652 41.606140,180.505829 
	C44.748741,184.737274 47.713287,189.100937 50.629253,193.937912 
	C42.213886,198.999268 39.053513,206.116638 39.982094,215.298279 
	C40.533123,220.746719 40.748600,226.255768 41.716846,231.629105 
	C43.190125,239.805145 45.185673,247.887070 46.959419,256.008972 
	C41.706215,249.723969 36.435806,243.453232 31.212307,237.143646 
	C29.957323,235.627747 28.858063,233.982956 27.426769,232.203583 
	C22.799925,207.149338 22.580351,182.061874 23.109440,156.470779 
z"/>
<path fill="#4B9C8D" opacity="1.000000" stroke="none" 
	d="
M410.342590,422.091858 
	C409.357513,419.239563 408.683136,416.532288 407.970001,413.007996 
	C407.914032,410.436493 407.896820,408.682007 407.879608,406.927521 
	C410.298431,394.521759 418.350464,388.176636 430.716705,385.973083 
	C448.902039,387.434296 459.488739,402.491241 453.737366,419.206726 
	C450.237061,429.379761 437.822449,436.416199 426.008850,433.509918 
	C419.359711,431.874146 414.203369,428.130951 410.342590,422.091858 
M425.388702,390.356689 
	C409.849426,396.184906 405.387421,413.323090 416.617737,424.668945 
	C422.630554,430.743591 430.004517,432.526825 438.174042,429.757568 
	C446.181458,427.043213 450.883667,421.202606 451.837311,412.934021 
	C452.800781,404.580170 449.867584,397.522888 442.618683,392.763977 
	C437.592072,389.463989 431.885895,389.785309 425.388702,390.356689 
z"/>
<path fill="#3E6E4C" opacity="1.000000" stroke="none" 
	d="
M23.731712,151.958496 
	C23.779448,152.098816 23.594858,152.350510 23.258797,152.781189 
	C23.243631,152.667526 23.374317,152.370773 23.731712,151.958496 
z"/>
<path fill="#3E6D4C" opacity="1.000000" stroke="none" 
	d="
M207.105881,454.049713 
	C206.287064,455.584320 205.468231,457.118958 204.382339,458.847046 
	C201.844635,456.911530 199.243927,455.038635 197.359802,452.609894 
	C188.642166,441.371887 180.094345,430.001373 171.570953,418.614502 
	C170.508041,417.194489 169.952209,415.394958 169.549164,413.408813 
	C175.268509,413.031738 180.600693,413.060944 185.931549,412.990814 
	C191.754166,412.914215 198.137207,414.503113 201.940384,406.014038 
	C203.660385,411.460266 204.640060,415.302734 206.128250,418.936920 
	C206.792038,420.557892 208.478775,421.759949 209.701263,423.152100 
	C210.897308,421.717651 212.404938,420.436920 213.208191,418.808685 
	C214.150925,416.897705 214.499039,414.689606 215.074707,412.601959 
	C218.706207,399.432465 222.319061,386.257782 225.970749,373.093903 
	C226.340866,371.759644 226.928207,370.485626 227.915451,367.843781 
	C230.859787,378.841400 233.424835,388.422333 235.984924,398.387573 
	C235.953384,399.538788 235.926804,400.305695 235.900208,401.072601 
	C228.617767,406.366791 226.547195,414.785370 222.999832,422.360931 
	C218.387405,432.210938 213.490997,441.927948 208.259521,451.996063 
	C207.570114,452.876495 207.337982,453.463104 207.105881,454.049713 
z"/>
<path fill="#337C6A" opacity="1.000000" stroke="none" 
	d="
M235.989883,398.003296 
	C233.424835,388.422333 230.859787,378.841400 227.915451,367.843781 
	C226.928207,370.485626 226.340866,371.759644 225.970749,373.093903 
	C222.319061,386.257782 218.706207,399.432465 215.074707,412.601959 
	C214.499039,414.689606 214.150925,416.897705 213.208191,418.808685 
	C212.404938,420.436920 210.897308,421.717651 209.701263,423.152100 
	C208.478775,421.759949 206.792038,420.557892 206.128250,418.936920 
	C204.640060,415.302734 203.660385,411.460266 201.940384,406.014038 
	C198.137207,414.503113 191.754166,412.914215 185.931549,412.990814 
	C180.600693,413.060944 175.268509,413.031738 169.468460,413.064362 
	C158.043777,413.052338 147.087082,413.075348 136.131409,412.981140 
	C113.718864,412.788422 97.203529,396.239807 97.018959,373.786682 
	C96.945274,364.822906 97.017059,355.857880 97.443558,346.413666 
	C99.527649,345.928589 101.190811,345.923279 102.870636,346.392120 
	C102.917618,355.856018 102.896400,364.846252 102.988777,373.835358 
	C103.194267,393.830383 116.307373,406.886658 136.333847,406.980194 
	C151.816269,407.052490 167.305527,406.738678 182.779266,407.112885 
	C190.123306,407.290466 196.391754,406.870789 199.043884,398.499420 
	C199.413055,397.334106 201.480530,396.094635 202.801819,396.049072 
	C203.751312,396.016327 205.146637,397.750488 205.679520,398.983246 
	C207.039932,402.130463 208.029022,405.438171 209.499344,409.630127 
	C210.290222,407.602753 210.787888,406.593994 211.083069,405.529083 
	C214.062210,394.781403 216.871521,383.984436 220.011444,373.284302 
	C222.110657,366.130585 224.666672,359.110901 227.018250,352.031250 
	C228.480682,353.691650 230.780533,355.137207 231.270508,357.047058 
	C234.609802,370.063141 237.568283,383.176941 240.324020,396.735352 
	C238.662216,397.475433 237.326050,397.739380 235.989883,398.003296 
z"/>
<path fill="#4B9B8B" opacity="1.000000" stroke="none" 
	d="
M102.853981,345.917969 
	C101.190811,345.923279 99.527649,345.928589 97.449341,345.941895 
	C96.132500,339.209320 92.062347,335.979980 85.662094,334.038788 
	C78.263397,331.794769 72.747276,326.322418 69.254112,319.576324 
	C65.631126,312.579559 63.064175,305.035980 60.335815,297.250732 
	C61.779823,296.224976 62.923370,295.679993 64.066910,295.135010 
	C65.319649,297.206238 66.696739,299.213531 67.801094,301.361053 
	C70.752602,307.100525 73.081429,313.226898 76.562874,318.614624 
	C86.972984,334.724792 114.115486,334.014435 123.715630,317.857178 
	C126.917610,312.468201 129.196701,306.536469 132.029205,300.919159 
	C132.943741,299.105499 134.278534,297.503784 136.027222,295.878601 
	C137.723953,296.298279 138.814545,296.644470 139.874237,297.371155 
	C137.355499,304.045593 135.285645,310.547943 132.275955,316.581543 
	C128.349777,324.452362 122.628616,331.250610 114.072922,334.032745 
	C107.717239,336.099487 103.605827,339.117462 102.853981,345.917969 
z"/>
<path fill="#34564E" opacity="1.000000" stroke="none" 
	d="
M63.961617,294.764343 
	C62.923370,295.679993 61.779823,296.224976 60.329540,296.850800 
	C55.766968,283.517029 51.511131,270.102386 47.107353,256.348389 
	C45.185673,247.887070 43.190125,239.805145 41.716846,231.629105 
	C40.748600,226.255768 40.533123,220.746719 39.982094,215.298279 
	C39.053513,206.116638 42.213886,198.999268 50.757538,194.263000 
	C59.439831,193.300110 67.864807,192.545212 76.665115,192.300812 
	C77.045349,193.859726 77.050240,194.908127 77.055130,195.956543 
	C69.947617,196.497131 62.712738,196.386627 55.765320,197.745636 
	C47.365284,199.388824 44.080666,204.119553 44.041023,212.692307 
	C43.962936,229.578735 48.879642,245.563019 53.422558,261.560547 
	C56.558117,272.602173 60.354980,283.455963 63.961617,294.764343 
z"/>
<path fill="#317D6D" opacity="1.000000" stroke="none" 
	d="
M235.984924,398.387573 
	C237.326050,397.739380 238.662216,397.475433 240.322784,397.130646 
	C240.647202,397.049774 240.885849,397.077637 241.119186,397.427551 
	C245.680710,415.344208 250.008896,432.910889 254.543167,451.314056 
	C255.153961,448.358490 255.578613,446.283173 256.012024,444.209686 
	C258.395386,432.807129 260.780884,421.405060 263.464966,410.122620 
	C265.141693,410.825287 266.519135,411.408112 267.896576,411.990906 
	C267.910706,413.345459 267.924835,414.699982 267.924377,416.460999 
	C265.276978,429.322968 262.640991,441.777802 260.013397,454.234436 
	C259.337311,457.439545 258.302429,460.629272 258.126770,463.863831 
	C257.923096,467.614624 256.176697,468.442383 252.454559,467.686401 
	C247.015854,445.892029 241.520294,423.869812 235.962463,401.460114 
	C235.926804,400.305695 235.953384,399.538788 235.984924,398.387573 
z"/>
<path fill="#40724B" opacity="1.000000" stroke="none" 
	d="
M207.349655,453.882629 
	C207.337982,453.463104 207.570114,452.876495 207.959991,452.163788 
	C207.942978,452.596954 207.768219,453.156219 207.349655,453.882629 
z"/>
<path fill="#327B6A" opacity="1.000000" stroke="none" 
	d="
M268.037537,411.638062 
	C266.519135,411.408112 265.141693,410.825287 263.387573,409.905823 
	C263.010895,409.569183 262.882843,409.126984 262.882843,409.126984 
	C264.230988,402.773102 265.423889,396.379486 267.033386,390.092499 
	C267.450073,388.464844 269.172241,387.171326 270.294739,385.724335 
	C271.433289,387.017334 273.111176,388.129486 273.615997,389.634979 
	C275.679871,395.789886 277.364716,402.071228 279.236877,408.291626 
	C279.736847,409.952698 280.406067,411.562805 281.655579,413.738892 
	C284.524567,405.764130 290.839111,407.013580 296.608856,407.006744 
	C328.096375,406.969421 359.583893,406.960114 391.540680,406.917816 
	C396.994812,406.912872 401.979675,406.931244 407.422058,406.938568 
	C407.896820,408.682007 407.914032,410.436493 407.906219,412.629028 
	C381.900909,413.063141 355.920624,413.059235 329.472351,413.075317 
	C317.840271,413.066010 306.672485,413.193054 295.513672,412.934875 
	C290.661652,412.822601 287.561615,414.599091 285.892639,419.108643 
	C285.433441,420.349335 284.874725,421.640015 284.033844,422.629059 
	C283.130341,423.691803 281.631531,425.305115 280.769165,425.099365 
	C279.462585,424.787659 277.919128,423.306030 277.459900,421.980652 
	C275.497864,416.318085 273.906006,410.527588 272.150299,404.792572 
	C271.966919,404.193573 271.593262,403.652863 270.774811,402.024628 
	C269.730957,405.747833 268.954712,408.516479 268.037537,411.638062 
z"/>
<path fill="#2E7D94" opacity="1.000000" stroke="none" 
	d="
M264.042175,236.084961 
	C287.717834,223.483200 313.474976,219.909973 339.749237,219.092697 
	C350.532166,218.757294 361.351410,219.588287 372.580322,219.863464 
	C380.289520,221.994324 387.636261,223.963745 394.818054,226.416153 
	C397.078247,227.187973 399.391663,229.004852 398.496887,231.912094 
	C392.630066,229.260727 387.169312,226.792892 381.357544,224.249802 
	C368.661896,223.442917 356.276123,221.721436 343.983215,222.232666 
	C328.950684,222.857803 313.912262,224.831421 299.034424,227.210129 
	C287.382538,229.073090 276.111420,232.818008 265.706970,239.526672 
	C264.019135,240.622177 262.524323,241.367538 261.241821,242.381393 
	C248.611008,252.366348 248.201675,260.636536 259.497467,275.084412 
	C258.340332,275.710510 257.273163,275.892426 255.922852,275.870789 
	C254.469971,274.273010 253.193253,272.954346 252.147690,271.472565 
	C244.792938,261.049561 245.532715,252.454376 254.769272,243.557892 
	C257.617310,240.814682 260.937927,238.562149 264.042175,236.084961 
z"/>
<path fill="#3E6D4C" opacity="1.000000" stroke="none" 
	d="
M102.870636,346.392120 
	C103.605827,339.117462 107.717239,336.099487 114.072922,334.032745 
	C122.628616,331.250610 128.349777,324.452362 132.275955,316.581543 
	C135.285645,310.547943 137.355499,304.045593 139.924835,296.978088 
	C140.415604,294.421295 140.716125,292.604736 141.251755,290.860321 
	C144.820251,279.238800 148.438965,267.632660 152.041351,256.021515 
	C153.874466,257.382233 156.147202,258.408356 157.475311,260.153412 
	C180.600418,290.538177 203.609650,321.011169 226.831207,351.748077 
	C224.666672,359.110901 222.110657,366.130585 220.011444,373.284302 
	C216.871521,383.984436 214.062210,394.781403 211.083069,405.529083 
	C210.787888,406.593994 210.290222,407.602753 209.499344,409.630127 
	C208.029022,405.438171 207.039932,402.130463 205.679520,398.983246 
	C205.146637,397.750488 203.751312,396.016327 202.801819,396.049072 
	C201.480530,396.094635 199.413055,397.334106 199.043884,398.499420 
	C196.391754,406.870789 190.123306,407.290466 182.779266,407.112885 
	C167.305527,406.738678 151.816269,407.052490 136.333847,406.980194 
	C116.307373,406.886658 103.194267,393.830383 102.988777,373.835358 
	C102.896400,364.846252 102.917618,355.856018 102.870636,346.392120 
z"/>
<path fill="#0A97CA" opacity="1.000000" stroke="none" 
	d="
M215.021912,152.141464 
	C235.773132,146.618729 254.944443,150.966095 273.087433,161.519455 
	C274.581146,162.388321 275.792847,163.742004 276.932373,164.699646 
	C276.723572,165.590302 276.755981,166.016342 276.559601,166.208160 
	C269.329529,173.270340 269.452972,173.026154 260.022156,168.087128 
	C244.678467,160.051437 228.590561,157.709335 211.043671,163.133698 
	C205.578232,165.949112 200.581985,168.234161 196.147522,171.325180 
	C186.613022,177.971100 178.479721,185.988220 173.939423,197.254028 
	C174.219040,198.029495 174.492935,198.572876 174.674622,199.477814 
	C174.035751,201.215302 173.489105,202.591248 172.804169,203.800186 
	C171.855988,203.889694 170.368332,204.081360 170.336670,204.412354 
	C169.746094,210.585281 169.328598,216.774765 168.893387,223.404480 
	C169.248184,236.022644 174.138351,246.531876 180.971588,256.262360 
	C186.798553,264.559906 195.054596,269.853882 203.849670,274.746765 
	C203.512924,275.975464 203.319412,276.677460 203.125885,277.379456 
	C198.709320,274.360718 194.275589,271.366730 189.881577,268.315491 
	C186.327637,265.847595 181.987915,263.947632 179.478989,260.663422 
	C175.125153,254.964218 170.771255,248.774460 168.524963,242.082916 
	C165.857315,234.136185 164.696304,225.485977 164.183258,217.061401 
	C163.468292,205.321838 166.462936,194.184616 172.897049,184.146332 
	C172.986679,184.006531 173.115494,183.865707 173.137695,183.712570 
	C175.165070,169.724869 186.956879,165.055908 196.978546,158.687485 
	C197.518967,158.344070 197.905640,157.758728 198.877930,157.274582 
	C202.716232,161.627350 205.816772,157.944824 209.219269,156.803284 
	C209.969330,155.787064 210.493439,154.963791 211.017578,154.140533 
	C211.493835,153.802307 211.970078,153.464081 212.809418,153.253433 
	C214.185944,154.015701 215.199387,154.650375 216.212814,155.285065 
	C216.406342,154.998550 216.599854,154.712051 216.793381,154.425537 
	C216.202896,153.664185 215.612396,152.902832 215.021912,152.141464 
z"/>
<path fill="#000000" opacity="1.000000" stroke="none" 
	d="
M262.608276,408.927094 
	C262.882843,409.126984 263.010895,409.569183 263.088257,409.786011 
	C260.780884,421.405060 258.395386,432.807129 256.012024,444.209686 
	C255.578613,446.283173 255.153961,448.358490 254.543167,451.314056 
	C250.008896,432.910889 245.680710,415.344208 241.238831,397.416748 
	C248.629105,394.845001 254.106659,396.925415 259.461853,404.122070 
	C260.538208,405.568512 261.382477,407.187683 262.608276,408.927094 
z"/>
<path fill="#33564E" opacity="1.000000" stroke="none" 
	d="
M152.157471,255.661499 
	C148.438965,267.632660 144.820251,279.238800 141.251755,290.860321 
	C140.716125,292.604736 140.415604,294.421295 139.955719,296.597565 
	C138.814545,296.644470 137.723953,296.298279 136.301117,295.842468 
	C139.605545,283.453613 143.638748,271.274506 146.771423,258.867981 
	C150.148041,245.495331 153.118134,231.984924 155.457504,218.395508 
	C157.710068,205.310181 152.402054,198.453918 139.212875,196.541489 
	C133.816345,195.759003 128.253922,196.120575 122.344856,195.555084 
	C121.856331,193.815567 121.789917,192.482666 121.723511,191.149750 
	C128.513824,191.630814 135.412140,191.515396 142.071243,192.721146 
	C154.679550,195.004166 161.006195,202.077469 159.721664,214.641418 
	C158.324646,228.305786 154.845123,241.757217 152.157471,255.661499 
z"/>
<path fill="#2F7D94" opacity="1.000000" stroke="none" 
	d="
M261.973633,276.981964 
	C272.717621,286.931702 283.498444,296.842133 294.176208,306.862457 
	C296.466553,309.011810 298.653717,311.375671 300.410004,313.965240 
	C303.108307,317.943756 302.015808,321.508575 297.427460,322.312225 
	C286.508179,324.224792 275.827332,322.813263 265.917755,317.686829 
	C262.414581,315.874603 261.900360,312.261871 265.059845,309.913361 
	C268.106201,307.648926 271.935608,306.132233 275.649750,305.169952 
	C278.550171,304.418488 281.800995,305.019440 285.501831,303.857941 
	C276.501465,295.622192 267.501068,287.386444 258.475464,278.771057 
	C259.624695,277.921661 260.799164,277.451813 261.973633,276.981964 
M269.922241,310.137329 
	C266.370575,313.134949 267.657318,315.806519 271.272736,316.593384 
	C278.510864,318.168762 285.913452,319.032715 293.279694,319.931366 
	C294.496796,320.079895 296.576050,319.215363 296.983124,318.270325 
	C297.401733,317.298584 296.611877,315.342590 295.738953,314.362061 
	C292.694672,310.942566 290.372925,307.315674 284.196777,307.755524 
	C279.515778,308.088837 274.779633,306.566742 269.922241,310.137329 
z"/>
<path fill="#0C95C6" opacity="1.000000" stroke="none" 
	d="
M262.071960,276.724396 
	C260.799164,277.451813 259.624695,277.921661 258.191833,278.572510 
	C246.660080,281.483368 235.276276,284.186218 223.644852,282.850342 
	C216.707718,282.053650 209.962402,279.586914 203.128387,277.625183 
	C203.319412,276.677460 203.512924,275.975464 204.200104,274.818359 
	C221.638672,281.732727 238.823242,281.886597 256.205994,276.074371 
	C257.273163,275.892426 258.340332,275.710510 259.692657,275.366211 
	C260.708618,275.624847 261.439453,276.045837 262.071960,276.724396 
z"/>
<path fill="#4A9A8A" opacity="1.000000" stroke="none" 
	d="
M121.434753,191.117493 
	C121.789917,192.482666 121.856331,193.815567 121.864777,195.546967 
	C119.083076,197.164490 116.449760,198.695297 113.611229,199.518524 
	C110.512962,200.417068 107.857491,199.346481 107.250290,195.793045 
	C106.675583,192.429840 108.893837,190.748672 111.789848,190.418198 
	C114.213921,190.141571 116.728508,190.658279 119.605469,190.839005 
	C120.387283,190.931290 120.766640,191.008255 121.434753,191.117493 
z"/>
<path fill="#0F91BD" opacity="1.000000" stroke="none" 
	d="
M208.993332,156.996231 
	C205.816772,157.944824 202.716232,161.627350 199.188446,157.126740 
	C198.984940,156.990311 199.064423,156.641083 199.094757,156.464600 
	C201.937988,155.350952 204.750900,154.413818 207.774704,153.949921 
	C208.325821,155.286285 208.666046,156.149414 209.003723,157.007736 
	C209.001205,157.002945 208.993332,156.996231 208.993332,156.996231 
z"/>
<path fill="#4B9A8B" opacity="1.000000" stroke="none" 
	d="
M77.395737,196.059616 
	C77.050240,194.908127 77.045349,193.859726 77.065201,192.418701 
	C80.462181,191.437088 83.843346,190.347092 87.203987,190.407089 
	C90.257195,190.461594 93.337906,192.111206 92.468559,195.998215 
	C91.674141,199.550217 88.753639,200.463593 85.469315,199.381973 
	C82.825050,198.511124 80.309181,197.250412 77.395737,196.059616 
z"/>
<path fill="#3A654C" opacity="1.000000" stroke="none" 
	d="
M255.922852,275.870789 
	C238.823242,281.886597 221.638672,281.732727 204.343353,274.291626 
	C195.054596,269.853882 186.798553,264.559906 180.971588,256.262360 
	C174.138351,246.531876 169.248184,236.022644 169.167389,223.106873 
	C170.596008,216.232773 171.769226,210.099991 172.942459,203.967209 
	C173.489105,202.591248 174.035751,201.215302 174.724335,199.234344 
	C174.555405,198.093536 174.244553,197.557755 173.933685,197.021957 
	C178.479721,185.988220 186.613022,177.971100 196.147522,171.325180 
	C200.581985,168.234161 205.578232,165.949112 210.660690,163.236908 
	C212.370758,165.611191 213.487823,168.236130 215.148697,170.453812 
	C229.676102,189.851608 244.309570,209.169907 258.884369,228.532303 
	C260.578308,230.782715 262.106995,233.157578 263.877228,235.779846 
	C260.937927,238.562149 257.617310,240.814682 254.769272,243.557892 
	C245.532715,252.454376 244.792938,261.049561 252.147690,271.472565 
	C253.193253,272.954346 254.469971,274.273010 255.922852,275.870789 
z"/>
<path fill="#0F91BD" opacity="1.000000" stroke="none" 
	d="
M214.730865,152.114456 
	C215.612396,152.902832 216.202896,153.664185 216.793381,154.425537 
	C216.599854,154.712051 216.406342,154.998550 216.212814,155.285065 
	C215.199387,154.650375 214.185944,154.015701 213.071976,153.122284 
	C213.460907,152.604843 213.950363,152.346146 214.730865,152.114456 
z"/>
<path fill="#0F91BD" opacity="1.000000" stroke="none" 
	d="
M210.679718,154.088196 
	C210.493439,154.963791 209.969330,155.787064 209.219269,156.803284 
	C208.993332,156.996231 209.001205,157.002945 209.004105,156.646881 
	C208.999222,155.569824 208.991455,154.848831 208.983688,154.127838 
	C209.436417,154.097183 209.889145,154.066513 210.679718,154.088196 
z"/>
<path fill="#0A97CA" opacity="1.000000" stroke="none" 
	d="
M208.756927,154.075195 
	C208.991455,154.848831 208.999222,155.569824 209.006622,156.651672 
	C208.666046,156.149414 208.325821,155.286285 208.027802,154.187439 
	C208.070007,153.951721 208.530182,154.022552 208.756927,154.075195 
z"/>
<path fill="#32554F" opacity="1.000000" stroke="none" 
	d="
M425.804138,390.268707 
	C431.885895,389.785309 437.592072,389.463989 442.618683,392.763977 
	C449.867584,397.522888 452.800781,404.580170 451.837311,412.934021 
	C450.883667,421.202606 446.181458,427.043213 438.174042,429.757568 
	C430.004517,432.526825 422.630554,430.743591 416.617737,424.668945 
	C405.387421,413.323090 409.849426,396.184906 425.804138,390.268707 
M427.860260,414.834686 
	C431.240112,416.854950 434.632629,416.612396 436.179810,412.989807 
	C436.985352,411.103729 436.207825,406.684021 435.012878,406.199036 
	C432.730042,405.272491 429.118713,405.491333 427.000397,406.781189 
	C423.740814,408.765869 425.020844,411.860291 427.860260,414.834686 
z"/>
<path fill="#128FB7" opacity="1.000000" stroke="none" 
	d="
M172.804169,203.800186 
	C171.769226,210.099991 170.596008,216.232773 169.148773,222.663177 
	C169.328598,216.774765 169.746094,210.585281 170.336670,204.412354 
	C170.368332,204.081360 171.855988,203.889694 172.804169,203.800186 
z"/>
<path fill="#128FB7" opacity="1.000000" stroke="none" 
	d="
M173.939423,197.254028 
	C174.244553,197.557755 174.555405,198.093536 174.816559,198.872803 
	C174.492935,198.572876 174.219040,198.029495 173.939423,197.254028 
z"/>
<path fill="#3A664C" opacity="1.000000" stroke="none" 
	d="
M270.211792,309.924377 
	C274.779633,306.566742 279.515778,308.088837 284.196777,307.755524 
	C290.372925,307.315674 292.694672,310.942566 295.738953,314.362061 
	C296.611877,315.342590 297.401733,317.298584 296.983124,318.270325 
	C296.576050,319.215363 294.496796,320.079895 293.279694,319.931366 
	C285.913452,319.032715 278.510864,318.168762 271.272736,316.593384 
	C267.657318,315.806519 266.370575,313.134949 270.211792,309.924377 
z"/>
<path fill="#4C9E8F" opacity="1.000000" stroke="none" 
	d="
M427.570892,414.584045 
	C425.020844,411.860291 423.740814,408.765869 427.000397,406.781189 
	C429.118713,405.491333 432.730042,405.272491 435.012878,406.199036 
	C436.207825,406.684021 436.985352,411.103729 436.179810,412.989807 
	C434.632629,416.612396 431.240112,416.854950 427.570892,414.584045 
z"/>
</svg>