<svg version="1.1" id="Layer_1" xmlns="http://www.w3.org/2000/svg" xmlns:xlink="http://www.w3.org/1999/xlink" x="0px" y="0px"
	 width="100%" viewBox="0 0 688 688" enable-background="new 0 0 688 688" xml:space="preserve">
<path fill="#FFFFFF" opacity="1.000000" stroke="none" 
	d="
M1.000000,236.000000 
	C1.000000,157.333328 1.000000,79.166664 1.000000,1.000000 
	C230.333328,1.000000 459.666656,1.000000 689.000000,1.000000 
	C689.000000,230.333328 689.000000,459.666656 689.000000,689.000000 
	C459.666656,689.000000 230.333328,689.000000 1.000000,689.000000 
	C1.000000,538.166687 1.000000,387.333344 1.000000,236.000000 
M207.151779,32.131943 
	C207.829483,31.851719 208.507187,31.571495 209.184891,31.291269 
	C209.094818,31.013041 209.004730,30.734810 208.914658,30.456581 
	C207.434326,30.861954 205.954010,31.267326 203.638596,31.877012 
	C203.408401,32.343304 203.178207,32.809593 202.948013,33.275883 
	C204.160400,32.878399 205.372787,32.480915 207.151779,32.131943 
M319.071991,377.111176 
	C319.071991,377.111176 319.097412,377.240479 319.920959,377.215485 
	C324.994049,375.896118 330.067108,374.576752 335.746185,373.297455 
	C336.149170,373.289307 336.552155,373.281158 337.336792,373.794556 
	C339.260071,376.072205 341.379150,378.213745 343.073120,380.650787 
	C350.836151,391.819366 358.362885,403.153717 366.224243,414.251617 
	C369.410828,418.750153 373.233521,422.798065 376.889587,427.735992 
	C377.920593,429.170380 378.951569,430.604767 379.976624,432.778839 
	C383.932068,439.416534 387.433899,446.381134 391.934265,452.626099 
	C402.369781,467.106873 414.601135,467.630768 427.525238,456.616364 
	C435.208740,450.068207 441.249390,441.592316 448.661133,434.339294 
	C453.698425,437.473480 457.952759,435.113861 461.930328,432.200897 
	C465.348816,429.697296 468.491455,426.817047 471.875214,424.004333 
	C475.193237,433.226593 479.198730,434.665405 487.447571,429.892517 
	C489.970154,428.432922 492.357086,426.738861 494.893158,425.095795 
	C497.306213,433.840576 502.125610,436.091888 509.586426,431.398010 
	C514.157532,428.522186 517.961060,424.402954 522.011108,420.733856 
	C523.617798,419.278320 524.959045,417.529755 526.421082,415.914581 
	C526.945007,418.128448 526.538635,419.711060 526.235229,421.313171 
	C525.059448,427.521729 527.790771,430.614319 534.029053,430.178955 
	C540.676025,429.715088 549.601807,422.544556 550.955872,414.812378 
	C545.400696,418.502045 539.845520,422.191711 534.290283,425.881378 
	C533.624329,425.373047 532.958313,424.864716 532.292358,424.356415 
	C539.695801,400.478729 551.146545,378.150208 561.101379,355.131989 
	C556.902588,352.916870 554.700012,354.291412 552.894226,357.559113 
	C545.090698,371.680206 537.105469,385.701630 529.399414,399.875183 
	C527.656189,403.081482 525.736511,404.426056 521.973328,404.031708 
	C512.129089,403.000122 504.751251,407.123657 498.972687,415.132233 
	C494.616089,421.170044 488.000366,424.317871 480.192719,427.633942 
	C480.552399,424.993011 480.586578,423.415253 481.002960,421.945801 
	C482.044983,418.268585 483.433105,414.681580 484.314911,410.971039 
	C484.635376,409.622528 484.384155,407.236115 483.550659,406.740112 
	C482.469940,406.097076 480.345673,406.475433 479.040802,407.140442 
	C477.639709,407.854523 476.652863,409.396454 475.511230,410.601776 
	C470.589874,415.797577 465.759918,421.083740 460.716644,426.158081 
	C459.042389,427.842651 456.828918,428.991302 454.311523,430.774963 
	C454.047058,428.883606 453.914764,427.937439 454.078247,426.330750 
	C455.329376,423.529663 456.580505,420.728577 458.551483,417.937897 
	C459.229309,417.506836 460.160034,417.235474 460.547882,416.621277 
	C469.755280,402.041504 479.547852,387.782806 487.918701,372.734070 
	C501.752197,347.864960 512.520142,321.590790 520.024597,294.094971 
	C522.803162,283.914459 524.728638,273.501129 527.521484,263.042480 
	C527.678284,262.984100 527.835022,262.925751 528.818909,263.015503 
	C548.017090,264.265167 566.793152,267.365814 584.336731,275.788696 
	C589.476685,278.256439 594.347595,280.983795 596.906311,286.606171 
	C597.363220,287.610199 599.462097,287.866913 600.802856,288.468689 
	C601.443665,286.926453 603.012695,284.959412 602.540100,283.926697 
	C601.412415,281.462646 599.761169,278.691162 597.534607,277.382629 
	C591.562378,273.872772 585.479492,269.754028 578.896729,268.236938 
	C562.429321,264.441711 545.660828,261.952881 528.992188,258.079895 
	C530.977112,242.331482 534.182617,226.620483 534.666992,210.826050 
	C535.434753,185.789658 536.647644,160.594345 531.923523,135.719513 
	C527.582458,112.861115 519.333313,92.047867 500.451630,76.911072 
	C485.031464,64.549232 467.282806,58.408352 447.767151,57.021572 
	C430.795135,55.815548 414.396057,58.979591 397.990936,63.312202 
	C395.814362,61.082829 393.984039,58.269386 391.395508,56.734940 
	C383.998352,52.350010 376.327271,48.419628 368.703003,44.426746 
	C341.252747,30.050884 312.119812,21.994291 280.148407,21.034449 
	C276.402649,21.105545 272.656921,21.176641 268.043030,21.165873 
	C256.164795,22.303619 244.286545,23.441366 232.408295,24.579115 
	C232.431732,25.106880 232.455154,25.634645 232.478592,26.162411 
	C236.408676,26.162411 240.338760,26.162411 243.366959,26.162411 
	C227.948013,30.764843 211.823257,35.585678 195.684601,40.359558 
	C195.177597,40.509529 194.527252,40.174881 193.840057,39.321865 
	C196.809631,37.489601 199.779205,35.657341 202.748764,33.825081 
	C202.394974,33.249596 202.041183,32.674110 201.687393,32.098625 
	C198.237823,34.047142 194.788254,35.995655 190.690292,38.075211 
	C189.789932,38.697983 188.889557,39.320751 187.526093,39.977840 
	C187.192245,40.066719 186.985687,40.279274 186.264587,40.894531 
	C184.922943,41.822620 183.581299,42.750710 181.835129,43.746471 
	C181.521210,43.990108 181.207291,44.233742 180.413361,44.716766 
	C180.279556,44.835346 180.145737,44.953930 179.371567,45.155697 
	C178.155807,45.912369 176.940048,46.669037 175.797760,47.379986 
	C176.256760,47.946007 176.706329,48.500397 176.465866,49.228107 
	C157.098312,61.265045 137.072891,72.372505 120.013336,87.670395 
	C120.296295,88.086143 120.579254,88.501892 120.862221,88.917648 
	C123.843674,86.997742 126.825134,85.077843 129.806595,83.157944 
	C130.065170,83.510834 130.323730,83.863724 130.582306,84.216614 
	C127.973099,87.605606 125.199165,90.882706 122.800011,94.414391 
	C120.293678,98.103844 118.148033,102.038330 115.329109,106.189346 
	C115.323273,106.717628 115.317436,107.245918 115.311607,107.774200 
	C115.756783,107.425407 116.201958,107.076614 117.217590,106.312241 
	C119.030449,104.895126 120.843315,103.478012 122.656174,102.060905 
	C122.970436,102.386253 123.284698,102.711594 123.598961,103.036942 
	C122.743652,104.323051 121.924446,105.634926 121.027794,106.891533 
	C94.504211,144.063156 87.577110,185.730988 91.732391,230.228607 
	C86.809341,230.876816 81.886299,231.525024 76.099937,232.047989 
	C67.813522,232.378174 59.424423,232.002747 51.262821,233.190536 
	C35.906414,235.425400 26.890564,243.871094 26.092386,255.925705 
	C25.742235,261.213959 25.663996,266.631256 26.388659,271.861633 
	C31.268229,307.080811 41.857197,340.789490 53.656502,374.744965 
	C53.797405,376.321167 53.622211,378.010040 54.136478,379.453186 
	C55.922256,384.464661 57.759403,389.474274 59.915779,394.334229 
	C67.104019,410.535065 77.578163,423.292358 95.753357,427.766510 
	C100.139503,428.846283 101.716064,432.017548 102.156479,436.221985 
	C102.328255,437.861877 103.270500,439.421051 103.850021,441.951965 
	C103.850693,453.448334 103.796227,464.945129 103.881241,476.440887 
	C103.911972,480.596344 103.843102,484.825836 104.560318,488.890900 
	C108.998459,514.045593 130.120071,531.695129 156.002396,531.845825 
	C179.827728,531.984497 203.661255,531.552368 227.477036,532.048950 
	C235.937668,532.225342 242.583603,531.266785 245.056183,521.946228 
	C245.095184,521.799194 245.528625,521.756836 246.023438,521.575806 
	C248.032455,528.124573 249.843719,534.698853 252.131378,541.102966 
	C252.878876,543.195557 254.866241,544.845215 256.286591,546.697449 
	C257.745453,544.732178 259.823120,542.969727 260.546539,540.763306 
	C262.668060,534.292542 264.234283,527.640686 266.048035,521.067993 
	C270.803802,503.833862 275.575500,486.604126 280.538177,468.659149 
	C281.242462,469.867981 281.703491,470.365448 281.842987,470.940857 
	C290.265717,505.688019 298.666901,540.440430 307.057404,575.195374 
	C309.204010,584.086975 311.152283,593.031311 313.558319,601.851379 
	C314.074249,603.742615 316.178619,605.200500 317.551239,606.858032 
	C318.824188,605.201355 320.109100,603.553589 321.357117,601.878357 
	C321.543701,601.627930 321.583466,601.253723 321.647186,600.928162 
	C325.766266,579.875427 329.867615,558.819153 334.002655,537.769592 
	C335.528717,530.001160 337.133240,522.248169 338.701996,514.488098 
	C340.050964,516.028931 340.570160,517.519226 341.010590,519.032349 
	C343.380890,527.175476 345.568298,535.377563 348.194183,543.436951 
	C348.929321,545.693176 350.936615,547.534973 352.360352,549.566833 
	C353.950836,547.879395 355.828766,546.376587 357.060455,544.458740 
	C358.667664,541.956177 360.021759,539.216553 361.014862,536.412476 
	C362.345947,532.654114 364.689087,531.770813 368.560577,531.780090 
	C420.710846,531.905029 472.861633,531.840393 525.380981,532.520264 
	C529.336426,550.567200 541.035522,560.344788 558.411499,560.125854 
	C572.076599,559.953613 584.317078,550.207092 587.829712,536.701294 
	C591.481018,522.662170 585.450439,508.150452 572.875366,500.715729 
	C560.886475,493.627594 545.519714,495.495605 535.554077,505.000671 
	C529.778748,510.509125 526.829590,517.373169 524.051819,524.861389 
	C471.893799,524.858948 419.735046,524.988281 367.578766,524.686523 
	C361.091675,524.648987 357.209961,526.421265 355.275513,532.515747 
	C354.931122,533.600708 354.136749,534.542969 353.228912,536.103149 
	C349.460297,523.244812 346.019012,511.086731 342.234070,499.036530 
	C341.664398,497.222900 339.489594,495.913422 338.057312,494.370728 
	C336.908173,495.976929 335.093475,497.441467 334.716522,499.212036 
	C331.979858,512.066101 329.541718,524.983643 326.992218,537.877808 
	C323.913025,553.450989 320.817169,569.020996 317.728516,584.592346 
	C316.075470,582.579041 315.480011,580.438965 314.956665,578.281433 
	C304.998901,537.231689 295.084137,496.171448 284.987244,455.155975 
	C284.528259,453.291412 282.442505,451.827271 281.114441,450.176636 
	C279.761627,451.831055 277.709808,453.284058 277.166046,455.171570 
	C272.607880,470.993225 268.341400,486.898743 263.955841,502.770355 
	C261.558533,511.446320 259.100861,520.105591 256.670441,528.772400 
	C253.921967,523.440857 252.446991,518.044067 250.530350,512.809082 
	C249.873260,511.014374 248.110641,509.624451 246.853088,508.049561 
	C245.342499,509.336090 243.435715,510.367493 242.407486,511.964569 
	C240.525436,514.887939 239.031998,518.088013 237.624115,521.281799 
	C236.491989,523.850037 235.008957,524.950439 231.984802,524.933838 
	C206.489746,524.793701 180.992783,524.979004 155.497971,524.817200 
	C131.617249,524.665649 111.848579,506.385864 110.996216,483.542999 
	C110.468651,469.404602 110.601448,455.241547 111.067291,440.758820 
	C111.398888,440.206604 112.040962,439.639496 112.015297,439.104431 
	C111.658241,431.659668 115.490433,428.144379 122.483551,426.401062 
	C131.813034,424.075317 138.941193,418.099213 144.857758,410.673553 
	C152.532822,401.040802 156.693390,389.664337 160.666260,378.229950 
	C161.075409,377.052368 160.295700,375.461731 160.477325,373.483643 
	C162.798660,367.631378 165.119980,361.779114 167.839066,355.394257 
	C167.905167,354.259613 167.971252,353.124939 168.447189,351.796814 
	C168.704666,351.617310 168.883148,351.378723 169.453369,351.106079 
	C169.780182,351.192596 170.014175,351.389435 170.122223,352.492493 
	C171.279022,355.365997 172.339905,358.282593 173.607758,361.106232 
	C183.893188,384.013550 194.953629,406.564728 210.436646,426.456146 
	C218.941177,437.382172 228.389420,447.672394 238.215652,457.441040 
	C246.815170,465.990204 259.939545,466.052551 267.991791,458.352570 
	C272.639282,453.908386 276.937531,448.965424 280.685913,443.739807 
	C291.447510,428.737183 301.011963,413.000122 308.667603,396.107574 
	C315.199036,402.046631 321.816193,407.894531 328.245270,413.942413 
	C345.099640,429.797302 361.963074,445.645172 378.597168,461.729279 
	C381.776520,464.803558 386.393372,468.478149 383.973358,473.584930 
	C381.554108,478.690125 375.654175,478.159180 371.034729,477.795105 
	C361.269226,477.025421 351.475494,475.916260 341.870239,474.040649 
	C334.770020,472.654114 327.689423,470.418488 321.085785,467.472443 
	C315.713165,465.075592 315.698761,461.564087 319.749146,457.150665 
	C328.628296,447.475464 341.409882,444.708282 353.394714,449.862885 
	C354.309753,450.256439 355.213898,450.852051 356.161682,450.940582 
	C357.030151,451.021729 357.950928,450.543457 358.848633,450.311676 
	C358.461121,449.337341 358.348389,447.955139 357.630341,447.471313 
	C356.003510,446.375153 354.144806,445.508423 352.263824,444.922729 
	C340.141876,441.148071 328.818390,443.411346 318.463745,450.261078 
	C313.835693,453.322540 308.307220,456.680511 309.173035,463.358337 
	C310.020721,469.896515 315.905731,472.032837 321.220276,474.014954 
	C336.814331,479.830841 353.022156,482.520538 369.625122,482.507385 
	C374.406006,482.503632 379.314240,481.897919 383.938690,480.698853 
	C392.536987,478.469421 394.736267,472.799469 390.176239,465.227722 
	C388.216064,461.972992 385.976013,458.703247 383.210693,456.145752 
	C359.256805,433.991333 335.154327,411.997589 311.011292,389.541504 
	C311.011292,389.541504 310.915802,389.129333 311.032654,388.409607 
	C312.676239,385.197205 314.319824,381.984772 316.422394,378.414124 
	C316.959930,378.195190 317.497498,377.976227 318.528076,377.775391 
	C318.898834,377.710419 319.123779,377.493927 319.071991,377.111176 
z"/>
<path fill="#DFE6E2" opacity="1.000000" stroke="none" 
	d="
M398.268585,63.949928 
	C414.396057,58.979591 430.795135,55.815548 447.767151,57.021572 
	C467.282806,58.408352 485.031464,64.549232 500.451630,76.911072 
	C519.333313,92.047867 527.582458,112.861115 531.923523,135.719513 
	C536.647644,160.594345 535.434753,185.789658 534.666992,210.826050 
	C534.182617,226.620483 530.977112,242.331482 528.746399,258.593903 
	C528.327637,259.157288 528.154724,259.206665 527.554565,259.160156 
	C519.808838,258.716858 512.493835,258.212463 505.171234,258.049744 
	C476.811340,257.419403 448.574738,259.120026 420.493805,263.104309 
	C388.936676,267.581818 357.912415,274.285187 328.590485,287.198608 
	C310.912476,294.984070 294.534760,304.752319 282.790009,320.770844 
	C274.783295,331.691101 272.529846,343.596283 277.803345,356.104340 
	C280.739929,363.069489 285.217957,369.384766 288.533752,376.039917 
	C275.802643,375.681244 263.388947,376.328491 251.312973,374.606964 
	C235.741806,372.387115 220.440109,368.274933 205.027603,364.953461 
	C204.574783,364.855835 204.180771,364.485291 203.759384,364.241882 
	C200.172058,362.169464 196.584778,360.096954 192.823975,357.781494 
	C192.080978,357.370361 191.511520,357.202179 190.689972,356.819946 
	C183.836334,352.425049 177.234787,348.244232 170.707458,343.668945 
	C172.350830,338.024170 173.967133,332.787476 175.480682,327.521240 
	C181.220749,307.549347 186.411667,287.476807 188.546921,266.707581 
	C190.412048,248.565826 184.062500,238.003342 166.282120,234.106567 
	C156.863983,232.042480 146.843658,232.726212 136.801849,232.065674 
	C136.314560,231.888382 136.120590,231.814865 135.929184,231.343445 
	C135.618652,228.994797 135.208054,227.053955 135.008789,225.091644 
	C133.941498,214.580872 133.043427,204.051712 131.868118,193.553391 
	C129.844940,175.481476 131.002182,157.511032 133.720428,139.640305 
	C134.983200,131.338440 137.205444,123.182526 139.076904,114.662949 
	C139.766434,113.550789 140.371780,112.736130 141.232605,111.783821 
	C141.750580,111.146576 142.013077,110.646973 142.220200,110.168159 
	C142.164825,110.188942 142.255951,110.264359 142.559250,110.138718 
	C144.808823,107.976700 146.749313,105.934761 148.702271,103.904831 
	C166.816864,85.076355 187.441132,69.761627 211.757202,59.110100 
	C214.083511,58.445576 216.060486,57.799107 218.346375,57.422791 
	C220.140335,57.795979 221.624069,57.962044 223.110580,57.992405 
	C239.980103,58.336952 255.982330,61.842823 270.550476,70.769058 
	C280.839722,77.073509 289.287659,85.012321 294.179749,96.317780 
	C297.650482,104.338524 296.826874,111.478653 290.191162,117.084297 
	C285.463470,121.078094 279.680695,123.844322 274.285767,127.017204 
	C271.828796,128.462234 269.171204,129.566147 266.604584,130.824783 
	C266.871613,131.418243 267.138641,132.011719 267.405670,132.605179 
	C274.233612,129.747818 281.404297,127.504005 287.824860,123.917397 
	C306.666290,113.392387 325.190277,102.300323 343.878937,91.500122 
	C351.326691,87.196045 358.880219,83.074959 366.712097,78.930908 
	C368.999725,80.210541 370.914215,81.513809 372.930756,82.633209 
	C378.803467,85.893250 381.205231,85.521049 384.934082,79.979698 
	C387.685822,75.890381 389.838806,71.398148 392.634949,67.006683 
	C394.763733,65.935265 396.516174,64.942596 398.268585,63.949928 
M287.834534,196.645996 
	C286.402130,197.295715 284.969727,197.945435 282.379242,199.120438 
	C283.220276,196.225281 283.668213,194.535019 284.202301,192.872467 
	C285.859558,187.713913 282.963989,184.207809 277.638367,185.198990 
	C275.372559,185.620667 273.032684,186.307053 271.043518,187.433182 
	C263.956024,191.445618 257.015259,195.716522 249.995468,199.849670 
	C247.926376,201.067902 245.779678,202.154282 242.446671,203.964813 
	C243.201797,200.717728 243.477631,198.803513 244.098953,197.008911 
	C245.458755,193.081375 247.026428,189.226364 248.445541,185.318634 
	C249.343796,182.845139 250.881119,180.004868 247.368622,178.442505 
	C244.035080,176.959763 241.139023,177.912033 239.432678,181.356537 
	C237.512451,185.232773 235.332794,189.023010 233.847549,193.064392 
	C229.130402,205.899597 218.727524,212.029266 206.781860,216.181091 
	C203.689499,217.255875 200.101196,216.903793 196.740707,217.207123 
	C197.316422,213.907288 197.375320,210.403564 198.579330,207.351578 
	C200.832855,201.639145 203.848755,196.231598 206.309128,190.593185 
	C206.809418,189.446701 206.791779,187.287918 206.060516,186.581070 
	C205.051041,185.605301 203.015625,184.985092 201.642502,185.273560 
	C199.999054,185.618805 197.896622,186.730988 197.193283,188.119156 
	C192.706406,196.974945 187.691360,205.708923 184.543594,215.053436 
	C181.790451,223.226410 186.422516,227.892746 195.281738,228.099808 
	C204.270905,228.309891 212.099518,224.853271 219.158813,220.549805 
	C219.543152,222.844391 219.576843,226.903442 220.364410,227.055420 
	C223.218903,227.606201 226.352081,226.998581 229.324173,226.496750 
	C230.344849,226.324387 231.203354,225.182755 232.132675,224.479614 
	C241.563156,217.344391 250.978012,210.188370 260.437073,203.091248 
	C262.091675,201.849823 263.931427,200.855225 265.685669,199.746628 
	C266.081696,200.010864 266.477722,200.275101 266.873749,200.539337 
	C266.417267,202.060730 266.231262,203.739532 265.454437,205.074554 
	C262.943848,209.389374 260.035553,213.478088 257.623383,217.843414 
	C255.286026,222.073318 257.225708,225.483307 261.949463,224.918320 
	C265.209900,224.528397 268.694733,223.066650 271.351624,221.100571 
	C281.654785,213.476334 291.647919,205.434052 301.808167,197.614578 
	C303.248505,196.506042 304.974182,195.768265 307.704346,194.210327 
	C307.007477,197.225082 306.699707,198.808426 306.272003,200.358688 
	C305.077911,204.687042 303.673523,208.963898 302.645630,213.330154 
	C300.877411,220.841263 303.649353,224.747116 311.124939,223.916626 
	C316.600769,223.308304 321.987671,221.208282 327.206207,219.225677 
	C330.518433,217.967300 333.449371,215.705368 336.915558,213.680725 
	C338.175659,220.606735 342.420868,224.152557 348.521240,225.818115 
	C367.777557,231.075516 388.682648,218.636719 393.358032,199.136795 
	C395.660095,189.535477 389.959717,181.880493 380.080017,182.111542 
	C372.763428,182.282684 365.071381,182.214539 358.295135,184.486069 
	C353.216278,186.188599 349.401123,191.536758 344.894592,195.098923 
	C337.517456,200.930115 330.124542,206.751648 322.511841,212.264542 
	C321.219696,213.200287 318.124634,213.347885 317.078949,212.447266 
	C316.018250,211.533707 315.862488,208.691528 316.363892,207.007767 
	C317.832336,202.076630 320.198792,197.397781 321.476746,192.430557 
	C322.281158,189.303955 321.762726,185.837021 321.837708,182.522736 
	C318.181274,182.707565 314.509583,182.753799 310.876923,183.154190 
	C309.645721,183.289902 308.484283,184.271561 307.340332,184.949966 
	C301.040161,188.686172 294.755280,192.448181 287.834534,196.645996 
M210.666473,174.101532 
	C217.607422,172.316681 219.893448,166.410660 221.978455,160.670197 
	C222.648590,158.825180 221.514450,156.324829 221.205765,154.124298 
	C218.816513,154.706284 215.357010,154.501404 214.240906,156.019455 
	C211.033371,160.382111 208.499817,165.316772 206.240677,170.272476 
	C204.813629,173.402908 206.407486,175.040817 210.666473,174.101532 
z"/>
<path fill="#DFE6E2" opacity="1.000000" stroke="none" 
	d="
M527.043213,263.194000 
	C524.728638,273.501129 522.803162,283.914459 520.024597,294.094971 
	C512.520142,321.590790 501.752197,347.864960 487.918701,372.734070 
	C479.547852,387.782806 469.755280,402.041504 460.547882,416.621277 
	C460.160034,417.235474 459.229309,417.506836 458.208801,417.554382 
	C458.902252,414.369293 460.226166,411.628693 460.838776,408.737427 
	C461.099152,407.508728 459.869354,405.964264 459.316803,404.563324 
	C458.023407,405.254700 456.397156,405.665527 455.519226,406.707092 
	C454.375458,408.064087 453.596954,409.850128 453.057983,411.575439 
	C450.299194,420.406830 443.292786,424.665649 435.481506,427.992065 
	C430.449707,430.134918 428.118988,428.306732 428.859039,422.891632 
	C429.148956,420.770477 429.733856,418.648468 430.482727,416.638000 
	C434.542267,405.739960 438.591980,394.836121 442.847107,384.013733 
	C446.556244,374.579956 450.626923,365.287659 454.280182,355.833282 
	C454.767334,354.572540 453.738800,352.726166 453.412170,351.150970 
	C451.920166,351.839020 450.375336,352.437103 448.965485,353.264954 
	C448.486237,353.546387 448.308441,354.391235 448.057953,355.005157 
	C439.962280,374.846771 431.895599,394.700226 423.772522,414.530579 
	C421.442810,420.217957 417.116821,424.023590 411.541565,426.288818 
	C407.975067,427.737885 406.574219,426.429016 407.063904,422.543488 
	C407.187256,421.564911 407.765015,420.620422 407.776428,419.656036 
	C407.796722,417.948730 407.542908,416.238129 407.403778,414.528931 
	C405.391602,414.820099 402.966553,414.501770 401.452087,415.527679 
	C398.170258,417.750763 395.445129,420.776672 392.314606,423.249176 
	C390.362579,424.790924 388.085999,425.921692 385.955078,427.236877 
	C385.633392,426.801178 385.311707,426.365509 384.989990,425.929810 
	C388.146545,418.279205 393.515015,412.630005 401.298615,409.312317 
	C402.142517,408.952637 403.431915,409.673340 404.521973,409.847321 
	C406.011383,410.084991 407.513031,410.419067 408.996460,410.363800 
	C409.266754,410.353760 409.962646,408.358368 409.618073,407.832825 
	C408.682465,406.405762 407.446869,404.474731 406.050507,404.208099 
	C403.722076,403.763519 400.939362,403.882263 398.761566,404.774048 
	C388.329102,409.045868 380.269745,415.849182 376.766754,427.051056 
	C373.233521,422.798065 369.410828,418.750153 366.224243,414.251617 
	C358.362885,403.153717 350.836151,391.819366 343.073120,380.650787 
	C341.379150,378.213745 339.260071,376.072205 337.527161,373.401642 
	C354.740936,368.257080 357.116669,367.106110 359.996979,361.965820 
	C349.593567,364.900513 339.453613,367.760895 328.983765,370.618713 
	C327.764862,370.795685 326.875824,370.975220 325.671448,371.135162 
	C325.029785,371.350677 324.703491,371.585754 324.327301,371.783264 
	C324.277405,371.745667 324.159698,371.703735 323.710449,371.694397 
	C315.143280,373.039764 307.025391,374.394501 298.599457,375.554901 
	C294.069122,368.888885 289.095398,362.776123 285.793884,355.864594 
	C280.315674,344.396271 282.296570,333.181946 289.659058,322.921509 
	C295.966278,314.131775 304.059418,307.304047 313.226532,301.678223 
	C331.549622,290.433380 351.582611,283.452332 372.247925,278.073059 
	C400.805237,270.639465 429.883575,266.003601 459.272614,264.257721 
	C481.804382,262.919220 504.448853,263.478668 527.043213,263.194000 
M377.300232,351.917633 
	C372.777832,354.465179 368.255432,357.012726 363.733032,359.560272 
	C364.044220,360.072449 364.355438,360.584656 364.666656,361.096832 
	C369.638885,358.927948 374.423676,356.457397 378.264130,351.878998 
	C378.188416,351.935638 378.112701,351.992310 377.300232,351.917633 
z"/>
<path fill="#FEFFFF" opacity="1.000000" stroke="none" 
	d="
M168.982605,351.081024 
	C168.883148,351.378723 168.704666,351.617310 167.832581,351.883179 
	C166.128616,351.990021 165.039276,352.010498 163.604507,352.121307 
	C160.681793,359.110260 158.104507,366.008881 155.189087,372.948975 
	C153.944611,374.509583 152.831848,375.944550 152.171494,377.563965 
	C150.353943,382.021149 148.991241,386.678192 146.976028,391.037750 
	C139.161896,407.942322 128.936172,422.181183 102.282631,420.166229 
	C92.397705,419.418915 84.482559,415.355927 77.995995,408.119476 
	C70.029861,399.232391 66.117165,388.253510 62.019749,377.340973 
	C61.364368,375.595520 59.601429,374.265991 58.261108,372.369293 
	C51.613407,350.557434 44.683273,329.224976 38.620361,307.648773 
	C34.171410,291.816254 30.633265,275.707825 30.883883,259.051117 
	C31.019413,250.043289 35.173656,244.168259 43.569248,240.726074 
	C54.422535,236.276245 65.719383,236.964188 77.235306,237.187820 
	C82.665527,240.279068 87.677368,243.701004 94.256912,242.800659 
	C94.421143,242.962921 94.847450,243.140244 94.896492,243.545212 
	C96.657921,250.913727 98.370300,257.877258 100.069214,265.213898 
	C101.032646,268.279877 102.009552,270.972748 103.175766,274.055756 
	C110.188477,294.555756 119.425911,313.120605 137.480988,327.784729 
	C136.342621,324.371735 135.650208,322.295776 134.957794,320.219818 
	C135.444244,319.886292 135.930695,319.552795 136.417145,319.219269 
	C139.305481,323.007416 142.485046,326.614349 144.990540,330.640747 
	C147.016815,333.897003 147.530502,338.418121 153.222610,336.871765 
	C154.100052,336.633362 155.582596,337.905640 156.525909,338.764221 
	C159.093369,341.101074 161.521774,343.590668 164.010849,346.398438 
	C164.535873,347.893677 165.055344,349.010132 165.523087,350.208557 
	C165.471359,350.290466 165.732819,350.337830 165.732819,350.337830 
	C165.732819,350.337830 165.738831,350.115723 166.121674,350.179749 
	C167.277939,350.256714 168.051376,350.269653 168.849136,350.485229 
	C168.873474,350.687805 168.982605,351.081024 168.982605,351.081024 
z"/>
<path fill="#0F9ACE" opacity="1.000000" stroke="none" 
	d="
M164.005295,346.019714 
	C161.521774,343.590668 159.093369,341.101074 156.525909,338.764221 
	C155.582596,337.905640 154.100052,336.633362 153.222610,336.871765 
	C147.530502,338.418121 147.016815,333.897003 144.990540,330.640747 
	C142.485046,326.614349 139.305481,323.007416 136.417145,319.219269 
	C135.930695,319.552795 135.444244,319.886292 134.957794,320.219818 
	C135.650208,322.295776 136.342621,324.371735 137.480988,327.784729 
	C119.425911,313.120605 110.188477,294.555756 103.578552,274.063873 
	C104.440659,273.445770 105.674278,273.127472 105.654305,272.985291 
	C104.455170,264.448853 103.215485,255.916534 101.809242,247.412018 
	C101.517212,245.645859 100.571487,243.987808 99.927025,242.279938 
	C99.084229,246.398621 99.439674,250.164688 99.660942,253.938629 
	C99.873756,257.568451 99.947716,261.206421 100.082680,264.840820 
	C98.370300,257.877258 96.657921,250.913727 94.985641,243.160141 
	C95.692284,240.707138 96.744202,239.087936 96.939117,237.371414 
	C97.268883,234.467346 97.865410,231.009247 93.093170,230.816132 
	C93.043823,230.435547 92.930008,230.272095 92.724983,230.172180 
	C87.577110,185.730988 94.504211,144.063156 121.027794,106.891533 
	C121.924446,105.634926 122.743652,104.323051 123.598961,103.036942 
	C123.284698,102.711594 122.970436,102.386253 122.656174,102.060905 
	C120.843315,103.478012 119.030449,104.895126 116.744537,106.292603 
	C116.129234,106.137207 115.986977,106.001450 115.844727,105.865692 
	C118.148033,102.038330 120.293678,98.103844 122.800011,94.414391 
	C125.199165,90.882706 127.973099,87.605606 130.582306,84.216614 
	C130.323730,83.863724 130.065170,83.510834 129.806595,83.157944 
	C126.825134,85.077843 123.843674,86.997742 120.862221,88.917648 
	C120.579254,88.501892 120.296295,88.086143 120.013336,87.670395 
	C137.072891,72.372505 157.098312,61.265045 177.155640,49.094772 
	C178.567596,47.665127 179.289764,46.368816 180.011932,45.072510 
	C180.145737,44.953930 180.279556,44.835346 180.699036,44.958656 
	C181.667923,45.546753 182.351135,45.892963 183.034363,46.239174 
	C182.769455,45.385712 182.504547,44.532253 182.239639,43.678795 
	C183.581299,42.750710 184.922943,41.822620 186.613586,41.126842 
	C187.049789,42.250648 187.136978,43.142139 187.224167,44.033634 
	C187.410416,44.036125 187.596649,44.038620 187.782898,44.041111 
	C187.851669,42.675251 187.920441,41.309387 187.989197,39.943527 
	C188.889557,39.320751 189.789932,38.697983 191.301056,38.454163 
	C192.130402,39.109737 192.348984,39.386364 192.407501,39.816383 
	C191.958969,40.099869 191.768707,40.316296 191.381165,40.711212 
	C190.830414,41.096012 190.575180,41.388664 190.319962,41.681316 
	C191.037979,41.664124 191.755981,41.646927 192.810699,41.529034 
	C193.432404,40.951519 193.717407,40.474701 193.987030,40.014343 
	C193.971649,40.030804 193.943726,40.066158 193.943726,40.066162 
	C194.527252,40.174881 195.177597,40.509529 195.684601,40.359558 
	C211.823257,35.585678 227.948013,30.764843 243.366959,26.162411 
	C240.338760,26.162411 236.408676,26.162411 232.478592,26.162411 
	C232.455154,25.634645 232.431732,25.106880 232.408295,24.579115 
	C244.286545,23.441366 256.164795,22.303619 268.490906,21.472248 
	C268.935608,22.131947 268.932465,22.485273 268.513855,22.893566 
	C264.051971,23.647251 260.005554,24.345970 255.959106,25.044689 
	C256.035400,25.525846 256.111664,26.007002 256.187958,26.488159 
	C264.761383,25.728878 273.334839,24.969597 283.246735,24.091780 
	C281.393860,22.980312 280.965912,22.723608 280.694824,22.173616 
	C280.920868,21.669693 280.990082,21.459053 281.059296,21.248413 
	C312.119812,21.994291 341.252747,30.050884 368.703003,44.426746 
	C376.327271,48.419628 383.998352,52.350010 391.395508,56.734940 
	C393.984039,58.269386 395.814362,61.082829 398.129761,63.631065 
	C396.516174,64.942596 394.763733,65.935265 392.233704,66.986359 
	C390.354126,67.340630 389.188446,67.494339 388.160400,67.955139 
	C380.788635,71.259369 373.444824,74.626007 365.750763,77.888847 
	C355.206116,72.244926 345.337189,65.918831 334.728119,61.288868 
	C314.336761,52.389801 292.470795,49.621010 270.457916,49.163448 
	C252.637604,48.793037 234.952942,50.839066 218.037460,57.152637 
	C216.060486,57.799107 214.083511,58.445576 211.299408,59.073936 
	C205.820236,60.018246 201.098206,60.786701 196.484680,61.976051 
	C174.342865,67.684097 157.636505,80.706795 146.002869,100.238632 
	C144.206528,103.254524 143.478195,106.906532 142.255951,110.264359 
	C142.255951,110.264359 142.164825,110.188942 141.922333,110.247971 
	C141.445602,110.845154 141.211365,111.383308 140.977127,111.921463 
	C140.371780,112.736130 139.766434,113.550789 138.773880,114.809982 
	C136.791809,117.171097 135.195007,119.086082 133.602325,121.004494 
	C113.578545,145.123306 103.208153,172.911926 101.954300,204.176697 
	C100.710693,235.185928 108.018967,264.174683 123.014526,291.195892 
	C133.151337,309.461945 145.259888,326.205322 162.913391,338.155701 
	C162.948273,338.113953 162.882431,338.028473 162.956451,338.299438 
	C163.348602,338.750977 163.666763,338.931580 164.133926,339.394562 
	C164.845703,339.971954 165.408493,340.266968 165.967102,340.778564 
	C166.003738,341.281219 166.048553,341.566589 165.949768,342.166901 
	C165.203201,343.661560 164.604248,344.840637 164.005295,346.019714 
M137.611481,87.973640 
	C137.893875,87.777145 138.081390,87.513229 138.619659,86.974808 
	C138.897507,86.775436 139.082382,86.511055 139.619766,85.974640 
	C139.897461,85.775284 140.082245,85.510979 140.619736,84.974686 
	C140.897537,84.775314 141.082397,84.510963 141.619888,83.974609 
	C141.897644,83.775253 142.082458,83.510925 142.622025,82.986229 
	C142.904846,82.802513 143.109497,82.554344 143.690109,82.054199 
	C143.974792,81.869194 144.179550,81.618828 144.911118,81.064026 
	C145.607513,80.047264 146.303909,79.030502 147.320343,77.718544 
	C147.431213,77.474007 147.542084,77.229469 147.652969,76.984940 
	C147.455002,77.343407 147.257034,77.701866 146.403275,78.095833 
	C145.399643,78.894112 144.396011,79.692398 143.011047,80.761353 
	C142.749588,80.954971 142.553299,81.200706 142.048355,81.770729 
	C141.789474,81.961838 141.591690,82.203079 141.067261,82.761948 
	C140.802017,82.954987 140.597900,83.199181 140.066849,83.762245 
	C139.801376,83.955376 139.596863,84.199593 139.066345,84.762466 
	C138.801453,84.955353 138.597778,85.199387 138.067505,85.762833 
	C137.801422,85.956436 137.599716,86.202797 137.092865,86.781380 
	C136.854721,86.998650 136.681839,87.259254 136.183350,87.859253 
	C135.945450,88.095253 135.773560,88.372223 135.222794,88.899628 
	C134.957321,89.108376 134.770996,89.372864 134.220291,89.901886 
	C133.955673,90.110046 133.770096,90.373810 133.220123,90.902145 
	C132.955536,91.110428 132.770172,91.374344 132.192169,91.991608 
	C132.197952,92.228363 132.203735,92.465118 132.209503,92.701866 
	C132.519791,92.512215 132.830078,92.322563 133.609207,91.956459 
	C133.786224,91.681885 133.963242,91.407303 134.609116,90.956398 
	C134.786163,90.681847 134.963196,90.407295 135.609222,89.956291 
	C135.786331,89.681648 135.963440,89.407005 136.603226,88.960785 
	C136.892578,88.768425 137.077026,88.503120 137.611481,87.973640 
M172.736603,57.254944 
	C165.850922,62.212933 158.965240,67.170921 152.079559,72.128906 
	C152.390411,72.670662 152.701263,73.212418 153.012131,73.754166 
	C179.458923,54.525368 208.883194,41.877243 240.036819,33.009495 
	C215.293289,33.879490 193.782471,43.847256 172.736603,57.254944 
M310.865692,33.663258 
	C298.462402,31.314482 287.848419,30.888411 283.818787,32.866333 
	C303.293396,37.805161 323.441315,37.537952 341.796997,45.478306 
	C333.085571,38.088573 322.561432,35.546642 310.865692,33.663258 
M125.824242,99.601082 
	C125.620689,99.527962 125.417130,99.454842 125.213577,99.381729 
	C125.276642,99.586784 125.339706,99.791832 125.824242,99.601082 
M189.407486,43.476761 
	C189.407486,43.476761 189.523666,43.403820 189.407486,43.476761 
M283.391083,24.520523 
	C283.391083,24.520523 283.328003,24.463160 283.391083,24.520523 
M131.431396,82.192062 
	C131.346115,82.384201 131.260834,82.576340 131.175568,82.768478 
	C131.379639,82.721344 131.583725,82.674210 131.431396,82.192062 
z"/>
<path fill="#DFE8E2" opacity="1.000000" stroke="none" 
	d="
M308.041962,395.842255 
	C301.011963,413.000122 291.447510,428.737183 280.685913,443.739807 
	C276.937531,448.965424 272.639282,453.908386 267.991791,458.352570 
	C259.939545,466.052551 246.815170,465.990204 238.215652,457.441040 
	C228.389420,447.672394 218.941177,437.382172 210.436646,426.456146 
	C194.953629,406.564728 183.893188,384.013550 173.607758,361.106232 
	C172.339905,358.282593 171.279022,355.365997 170.475540,352.191742 
	C184.071655,358.954651 197.314438,366.018341 210.894943,373.262177 
	C208.994446,373.262177 207.365280,373.262177 205.736115,373.262177 
	C205.685562,373.761932 205.635010,374.261688 205.584457,374.761444 
	C214.406311,376.067108 223.257767,377.206940 232.032898,378.774078 
	C234.861877,379.279327 237.479141,381.841034 240.211838,381.872925 
	C258.118500,382.082184 276.030212,381.855865 294.228027,381.961426 
	C299.005127,386.445770 303.494476,390.740417 308.007690,395.236206 
	C308.031616,395.437317 308.041962,395.842255 308.041962,395.842255 
z"/>
<path fill="#669E93" opacity="1.000000" stroke="none" 
	d="
M110.437813,441.089600 
	C110.601448,455.241547 110.468651,469.404602 110.996216,483.542999 
	C111.848579,506.385864 131.617249,524.665649 155.497971,524.817200 
	C180.992783,524.979004 206.489746,524.793701 231.984802,524.933838 
	C235.008957,524.950439 236.491989,523.850037 237.624115,521.281799 
	C239.031998,518.088013 240.525436,514.887939 242.407486,511.964569 
	C243.435715,510.367493 245.342499,509.336090 246.853104,508.049561 
	C248.110641,509.624451 249.873260,511.014374 250.530350,512.809082 
	C252.446991,518.044067 253.921967,523.440857 256.670441,528.772400 
	C259.100861,520.105591 261.558533,511.446320 263.955841,502.770355 
	C268.341400,486.898743 272.607880,470.993225 277.166046,455.171570 
	C277.709808,453.284058 279.761627,451.831055 281.114441,450.176636 
	C282.442505,451.827271 284.528259,453.291412 284.987244,455.155975 
	C295.084137,496.171448 304.998901,537.231689 314.956665,578.281433 
	C315.480011,580.438965 316.075470,582.579041 317.728516,584.592346 
	C320.817169,569.020996 323.913025,553.450989 326.992218,537.877808 
	C329.541718,524.983643 331.979858,512.066101 334.716522,499.212036 
	C335.093475,497.441467 336.908173,495.976929 338.057312,494.370728 
	C339.489594,495.913422 341.664398,497.222900 342.234070,499.036530 
	C346.019012,511.086731 349.460297,523.244812 353.228912,536.103149 
	C354.136749,534.542969 354.931122,533.600708 355.275513,532.515747 
	C357.209961,526.421265 361.091675,524.648987 367.578766,524.686523 
	C419.735046,524.988281 471.893799,524.858948 524.532959,525.315125 
	C525.013428,527.786804 525.012878,529.804810 525.012268,531.822754 
	C472.861633,531.840393 420.710846,531.905029 368.560577,531.780090 
	C364.689087,531.770813 362.345947,532.654114 361.014862,536.412476 
	C360.021759,539.216553 358.667664,541.956177 357.060455,544.458740 
	C355.828766,546.376587 353.950836,547.879395 352.360352,549.566833 
	C350.936615,547.534973 348.929321,545.693176 348.194183,543.436951 
	C345.568298,535.377563 343.380890,527.175476 341.010590,519.032349 
	C340.570160,517.519226 340.050964,516.028931 338.701996,514.488098 
	C337.133240,522.248169 335.528717,530.001160 334.002655,537.769592 
	C329.867615,558.819153 325.766266,579.875427 321.647186,600.928162 
	C321.583466,601.253723 321.543701,601.627930 321.357117,601.878357 
	C320.109100,603.553589 318.824188,605.201355 317.551239,606.858032 
	C316.178619,605.200500 314.074249,603.742615 313.558319,601.851379 
	C311.152283,593.031311 309.204010,584.086975 307.057404,575.195374 
	C298.666901,540.440430 290.265717,505.688019 281.842987,470.940857 
	C281.703491,470.365448 281.242462,469.867981 280.538177,468.659149 
	C275.575500,486.604126 270.803802,503.833862 266.048035,521.067993 
	C264.234283,527.640686 262.668060,534.292542 260.546539,540.763306 
	C259.823120,542.969727 257.745453,544.732178 256.286591,546.697449 
	C254.866241,544.845215 252.878876,543.195557 252.131378,541.102966 
	C249.843719,534.698853 248.032455,528.124573 246.023438,521.575806 
	C245.528625,521.756836 245.095184,521.799194 245.056183,521.946228 
	C242.583603,531.266785 235.937668,532.225342 227.477036,532.048950 
	C203.661255,531.552368 179.827728,531.984497 156.002396,531.845825 
	C130.120071,531.695129 108.998459,514.045593 104.560318,488.890900 
	C103.843102,484.825836 103.911972,480.596344 103.881241,476.440887 
	C103.796227,464.945129 103.850693,453.448334 104.321365,441.473816 
	C106.674408,441.026947 108.556107,441.058258 110.437813,441.089600 
z"/>
<path fill="#377F90" opacity="1.000000" stroke="none" 
	d="
M307.983795,395.035065 
	C303.494476,390.740417 299.005127,386.445770 294.073608,381.689240 
	C292.088013,379.482544 290.544647,377.737732 289.001282,375.992920 
	C285.217957,369.384766 280.739929,363.069489 277.803345,356.104340 
	C272.529846,343.596283 274.783295,331.691101 282.790009,320.770844 
	C294.534760,304.752319 310.912476,294.984070 328.590485,287.198608 
	C357.912415,274.285187 388.936676,267.581818 420.493805,263.104309 
	C448.574738,259.120026 476.811340,257.419403 505.171234,258.049744 
	C512.493835,258.212463 519.808838,258.716858 527.560425,259.520966 
	C527.992920,260.940918 527.992371,261.904144 527.991821,262.867401 
	C527.835022,262.925751 527.678284,262.984100 527.282349,263.118225 
	C504.448853,263.478668 481.804382,262.919220 459.272614,264.257721 
	C429.883575,266.003601 400.805237,270.639465 372.247925,278.073059 
	C351.582611,283.452332 331.549622,290.433380 313.226532,301.678223 
	C304.059418,307.304047 295.966278,314.131775 289.659058,322.921509 
	C282.296570,333.181946 280.315674,344.396271 285.793884,355.864594 
	C289.095398,362.776123 294.069122,368.888885 298.637207,375.848969 
	C300.260468,377.877258 301.537933,379.417145 302.977173,381.260498 
	C305.731232,384.085785 308.323517,386.607574 310.915802,389.129333 
	C310.915802,389.129333 311.011292,389.541504 310.775543,389.930389 
	C309.687805,391.891205 308.835785,393.463135 307.983795,395.035065 
z"/>
<path fill="#36849D" opacity="1.000000" stroke="none" 
	d="
M453.782471,426.991272 
	C453.914764,427.937439 454.047058,428.883606 454.311523,430.774963 
	C456.828918,428.991302 459.042389,427.842651 460.716644,426.158081 
	C465.759918,421.083740 470.589874,415.797577 475.511230,410.601776 
	C476.652863,409.396454 477.639709,407.854523 479.040802,407.140442 
	C480.345673,406.475433 482.469940,406.097076 483.550659,406.740112 
	C484.384155,407.236115 484.635376,409.622528 484.314911,410.971039 
	C483.433105,414.681580 482.044983,418.268585 481.002960,421.945801 
	C480.586578,423.415253 480.552399,424.993011 480.192719,427.633942 
	C488.000366,424.317871 494.616089,421.170044 498.972687,415.132233 
	C504.751251,407.123657 512.129089,403.000122 521.973328,404.031708 
	C525.736511,404.426056 527.656189,403.081482 529.399414,399.875183 
	C537.105469,385.701630 545.090698,371.680206 552.894226,357.559113 
	C554.700012,354.291412 556.902588,352.916870 561.101379,355.131989 
	C551.146545,378.150208 539.695801,400.478729 532.292358,424.356415 
	C532.958313,424.864716 533.624329,425.373047 534.290283,425.881378 
	C539.845520,422.191711 545.400696,418.502045 550.955872,414.812378 
	C549.601807,422.544556 540.676025,429.715088 534.029053,430.178955 
	C527.790771,430.614319 525.059448,427.521729 526.235229,421.313171 
	C526.538635,419.711060 526.945007,418.128448 526.421082,415.914581 
	C524.959045,417.529755 523.617798,419.278320 522.011108,420.733856 
	C517.961060,424.402954 514.157532,428.522186 509.586426,431.398010 
	C502.125610,436.091888 497.306213,433.840576 494.893158,425.095795 
	C492.357086,426.738861 489.970154,428.432922 487.447571,429.892517 
	C479.198730,434.665405 475.193237,433.226593 471.875214,424.004333 
	C468.491455,426.817047 465.348816,429.697296 461.930328,432.200897 
	C457.952759,435.113861 453.698425,437.473480 448.336761,433.911163 
	C448.022827,433.316559 448.033234,433.150116 448.338623,432.832855 
	C450.349945,430.785156 452.066223,428.888214 453.782471,426.991272 
M506.794739,414.374176 
	C503.583008,418.658813 501.068085,423.118225 502.831146,429.708862 
	C505.124847,428.317474 507.024506,427.607941 508.317780,426.299225 
	C512.518311,422.048492 516.572815,417.644623 520.500305,413.139984 
	C521.341003,412.175781 521.411438,410.540039 521.836731,409.213684 
	C520.344849,408.743713 518.484497,407.468018 517.428284,407.950928 
	C513.888428,409.569275 510.635681,411.815643 506.794739,414.374176 
z"/>
<path fill="#36849D" opacity="1.000000" stroke="none" 
	d="
M308.007690,395.236206 
	C308.835785,393.463135 309.687805,391.891205 310.817932,390.137634 
	C335.154327,411.997589 359.256805,433.991333 383.210693,456.145752 
	C385.976013,458.703247 388.216064,461.972992 390.176239,465.227722 
	C394.736267,472.799469 392.536987,478.469421 383.938690,480.698853 
	C379.314240,481.897919 374.406006,482.503632 369.625122,482.507385 
	C353.022156,482.520538 336.814331,479.830841 321.220276,474.014954 
	C315.905731,472.032837 310.020721,469.896515 309.173035,463.358337 
	C308.307220,456.680511 313.835693,453.322540 318.463745,450.261078 
	C328.818390,443.411346 340.141876,441.148071 352.263824,444.922729 
	C354.144806,445.508423 356.003510,446.375153 357.630341,447.471313 
	C358.348389,447.955139 358.461121,449.337341 358.848633,450.311676 
	C357.950928,450.543457 357.030151,451.021729 356.161682,450.940582 
	C355.213898,450.852051 354.309753,450.256439 353.394714,449.862885 
	C341.409882,444.708282 328.628296,447.475464 319.749146,457.150665 
	C315.698761,461.564087 315.713165,465.075592 321.085785,467.472443 
	C327.689423,470.418488 334.770020,472.654114 341.870239,474.040649 
	C351.475494,475.916260 361.269226,477.025421 371.034729,477.795105 
	C375.654175,478.159180 381.554108,478.690125 383.973358,473.584930 
	C386.393372,468.478149 381.776520,464.803558 378.597168,461.729279 
	C361.963074,445.645172 345.099640,429.797302 328.245270,413.942413 
	C321.816193,407.894531 315.199036,402.046631 308.354797,395.974915 
	C308.041962,395.842255 308.031616,395.437317 308.007690,395.236206 
z"/>
<path fill="#DFE6E2" opacity="1.000000" stroke="none" 
	d="
M448.043610,432.983643 
	C448.033234,433.150116 448.022827,433.316559 448.020508,433.733093 
	C441.249390,441.592316 435.208740,450.068207 427.525238,456.616364 
	C414.601135,467.630768 402.369781,467.106873 391.934265,452.626099 
	C387.433899,446.381134 383.932068,439.416534 380.428162,432.376953 
	C388.654877,433.411743 394.486053,429.320374 400.497803,423.935577 
	C401.320251,430.861145 405.426178,431.985992 410.062012,430.832947 
	C414.100128,429.828552 417.864594,427.723969 421.715240,426.119995 
	C423.351868,433.318939 426.332764,435.451508 433.164246,433.488434 
	C436.303040,432.586456 439.232605,430.906433 442.189911,429.443481 
	C443.695129,428.698853 445.051727,427.653870 446.466492,426.750397 
	C447.095734,429.237366 447.569672,431.110504 448.043610,432.983643 
z"/>
<path fill="#377F90" opacity="1.000000" stroke="none" 
	d="
M448.338623,432.832855 
	C447.569672,431.110504 447.095734,429.237366 446.466492,426.750397 
	C445.051727,427.653870 443.695129,428.698853 442.189911,429.443481 
	C439.232605,430.906433 436.303040,432.586456 433.164246,433.488434 
	C426.332764,435.451508 423.351868,433.318939 421.715240,426.119995 
	C417.864594,427.723969 414.100128,429.828552 410.062012,430.832947 
	C405.426178,431.985992 401.320251,430.861145 400.497803,423.935577 
	C394.486053,429.320374 388.654877,433.411743 380.431152,432.007141 
	C378.951569,430.604767 377.920593,429.170380 376.828186,427.393524 
	C380.269745,415.849182 388.329102,409.045868 398.761566,404.774048 
	C400.939362,403.882263 403.722076,403.763519 406.050507,404.208099 
	C407.446869,404.474731 408.682465,406.405762 409.618073,407.832825 
	C409.962646,408.358368 409.266754,410.353760 408.996460,410.363800 
	C407.513031,410.419067 406.011383,410.084991 404.521973,409.847321 
	C403.431915,409.673340 402.142517,408.952637 401.298615,409.312317 
	C393.515015,412.630005 388.146545,418.279205 384.989990,425.929810 
	C385.311707,426.365509 385.633392,426.801178 385.955078,427.236877 
	C388.085999,425.921692 390.362579,424.790924 392.314606,423.249176 
	C395.445129,420.776672 398.170258,417.750763 401.452087,415.527679 
	C402.966553,414.501770 405.391602,414.820099 407.403778,414.528931 
	C407.542908,416.238129 407.796722,417.948730 407.776428,419.656036 
	C407.765015,420.620422 407.187256,421.564911 407.063904,422.543488 
	C406.574219,426.429016 407.975067,427.737885 411.541565,426.288818 
	C417.116821,424.023590 421.442810,420.217957 423.772522,414.530579 
	C431.895599,394.700226 439.962280,374.846771 448.057953,355.005157 
	C448.308441,354.391235 448.486237,353.546387 448.965485,353.264954 
	C450.375336,352.437103 451.920166,351.839020 453.412170,351.150970 
	C453.738800,352.726166 454.767334,354.572540 454.280182,355.833282 
	C450.626923,365.287659 446.556244,374.579956 442.847107,384.013733 
	C438.591980,394.836121 434.542267,405.739960 430.482727,416.638000 
	C429.733856,418.648468 429.148956,420.770477 428.859039,422.891632 
	C428.118988,428.306732 430.449707,430.134918 435.481506,427.992065 
	C443.292786,424.665649 450.299194,420.406830 453.057983,411.575439 
	C453.596954,409.850128 454.375458,408.064087 455.519226,406.707092 
	C456.397156,405.665527 458.023407,405.254700 459.316803,404.563324 
	C459.869354,405.964264 461.099152,407.508728 460.838776,408.737427 
	C460.226166,411.628693 458.902252,414.369293 457.848877,417.549164 
	C456.580505,420.728577 455.329376,423.529663 453.930359,426.661011 
	C452.066223,428.888214 450.349945,430.785156 448.338623,432.832855 
z"/>
<path fill="#7CB8AE" opacity="1.000000" stroke="none" 
	d="
M110.752548,440.924194 
	C108.556107,441.058258 106.674408,441.026947 104.327255,441.006317 
	C103.270500,439.421051 102.328255,437.861877 102.156479,436.221985 
	C101.716064,432.017548 100.139503,428.846283 95.753357,427.766510 
	C77.578163,423.292358 67.104019,410.535065 59.915779,394.334229 
	C57.759403,389.474274 55.922256,384.464661 54.136478,379.453186 
	C53.622211,378.010040 53.797405,376.321167 54.195717,374.409363 
	C55.940125,373.630585 57.145317,373.187378 58.350506,372.744171 
	C59.601429,374.265991 61.364368,375.595520 62.019749,377.340973 
	C66.117165,388.253510 70.029861,399.232391 77.995995,408.119476 
	C84.482559,415.355927 92.397705,419.418915 102.282631,420.166229 
	C128.936172,422.181183 139.161896,407.942322 146.976028,391.037750 
	C148.991241,386.678192 150.353943,382.021149 152.171494,377.563965 
	C152.831848,375.944550 153.944611,374.509583 155.566010,373.078735 
	C157.543259,373.465637 158.805450,373.764191 160.067642,374.062744 
	C160.295700,375.461731 161.075409,377.052368 160.666260,378.229950 
	C156.693390,389.664337 152.532822,401.040802 144.857758,410.673553 
	C138.941193,418.099213 131.813034,424.075317 122.483551,426.401062 
	C115.490433,428.144379 111.658241,431.659668 112.015297,439.104431 
	C112.040962,439.639496 111.398888,440.206604 110.752548,440.924194 
z"/>
<path fill="#6A837E" opacity="1.000000" stroke="none" 
	d="
M58.261108,372.369293 
	C57.145317,373.187378 55.940125,373.630585 54.332047,374.080261 
	C41.857197,340.789490 31.268229,307.080811 26.388659,271.861633 
	C25.663996,266.631256 25.742235,261.213959 26.092386,255.925705 
	C26.890564,243.871094 35.906414,235.425400 51.262821,233.190536 
	C59.424423,232.002747 67.813522,232.378174 76.546669,232.506866 
	C76.995064,234.290085 76.996719,235.614410 76.998375,236.938751 
	C65.719383,236.964188 54.422535,236.276245 43.569248,240.726074 
	C35.173656,244.168259 31.019413,250.043289 30.883883,259.051117 
	C30.633265,275.707825 34.171410,291.816254 38.620361,307.648773 
	C44.683273,329.224976 51.613407,350.557434 58.261108,372.369293 
z"/>
<path fill="#1F97BB" opacity="1.000000" stroke="none" 
	d="
M288.533752,376.039917 
	C290.544647,377.737732 292.088013,379.482544 293.785828,381.499542 
	C276.030212,381.855865 258.118500,382.082184 240.211838,381.872925 
	C237.479141,381.841034 234.861877,379.279327 232.032898,378.774078 
	C223.257767,377.206940 214.406311,376.067108 205.584457,374.761444 
	C205.635010,374.261688 205.685562,373.761932 205.736115,373.262177 
	C207.365280,373.262177 208.994446,373.262177 210.894943,373.262177 
	C197.314438,366.018341 184.071655,358.954651 170.492111,351.793793 
	C170.014175,351.389435 169.780182,351.192596 169.217987,351.093567 
	C168.982605,351.081024 168.873474,350.687805 168.895050,350.089752 
	C169.275604,347.719879 169.634583,345.948029 170.154388,344.153198 
	C170.315216,344.130219 170.633224,344.063416 170.633224,344.063416 
	C177.234787,348.244232 183.836334,352.425049 190.709259,356.808228 
	C190.980637,357.010559 191.011246,356.977325 190.633301,356.874817 
	C190.647827,358.215454 191.040283,359.658661 191.432739,361.101837 
	C191.893784,360.983490 192.354843,360.865112 192.815887,360.746765 
	C192.894424,359.816895 192.972961,358.886993 193.036270,357.972595 
	C193.021042,357.988037 192.997482,358.024475 192.997482,358.024475 
	C196.584778,360.096954 200.172058,362.169464 203.759384,364.241882 
	C204.180771,364.485291 204.574783,364.855835 205.027603,364.953461 
	C220.440109,368.274933 235.741806,372.387115 251.312973,374.606964 
	C263.388947,376.328491 275.802643,375.681244 288.533752,376.039917 
M214.109009,374.053101 
	C213.812637,373.685547 213.578461,373.194702 213.194412,373.001038 
	C212.994095,372.900055 212.529861,373.322540 212.184830,373.508606 
	C212.585846,373.707977 212.986877,373.907349 214.109009,374.053101 
z"/>
<path fill="#7DB6AC" opacity="1.000000" stroke="none" 
	d="
M525.196655,532.171509 
	C525.012878,529.804810 525.013428,527.786804 525.000488,525.332397 
	C526.829590,517.373169 529.778748,510.509125 535.554077,505.000671 
	C545.519714,495.495605 560.886475,493.627594 572.875366,500.715729 
	C585.450439,508.150452 591.481018,522.662170 587.829712,536.701294 
	C584.317078,550.207092 572.076599,559.953613 558.411499,560.125854 
	C541.035522,560.344788 529.336426,550.567200 525.196655,532.171509 
M574.428833,505.960968 
	C558.468384,496.201813 542.564758,498.966492 533.517639,513.072937 
	C525.691284,525.275940 528.140320,541.855957 539.030762,550.397217 
	C551.023376,559.802734 567.348389,558.650635 577.771973,547.780090 
	C587.537659,537.595703 588.649597,517.912415 574.428833,505.960968 
z"/>
<path fill="#3C879F" opacity="1.000000" stroke="none" 
	d="
M528.405396,262.941467 
	C527.992371,261.904144 527.992920,260.940918 527.987671,259.616852 
	C528.154724,259.206665 528.327637,259.157288 528.756836,259.023895 
	C545.660828,261.952881 562.429321,264.441711 578.896729,268.236938 
	C585.479492,269.754028 591.562378,273.872772 597.534607,277.382629 
	C599.761169,278.691162 601.412415,281.462646 602.540100,283.926697 
	C603.012695,284.959412 601.443665,286.926453 600.802856,288.468689 
	C599.462097,287.866913 597.363220,287.610199 596.906311,286.606171 
	C594.347595,280.983795 589.476685,278.256439 584.336731,275.788696 
	C566.793152,267.365814 548.017090,264.265167 528.405396,262.941467 
z"/>
<path fill="#7CB8AE" opacity="1.000000" stroke="none" 
	d="
M77.235306,237.187820 
	C76.996719,235.614410 76.995064,234.290085 76.978325,232.569489 
	C81.886299,231.525024 86.809341,230.876816 92.228683,230.200394 
	C92.930008,230.272095 93.043823,230.435547 93.039001,231.247208 
	C93.371956,235.434052 93.732323,239.036224 94.092690,242.638412 
	C87.677368,243.701004 82.665527,240.279068 77.235306,237.187820 
z"/>
<path fill="#1F97BB" opacity="1.000000" stroke="none" 
	d="
M329.313629,370.621277 
	C339.453613,367.760895 349.593567,364.900513 359.996979,361.965820 
	C357.116669,367.106110 354.740936,368.257080 337.336304,373.140869 
	C336.552155,373.281158 336.149170,373.289307 335.223267,372.945312 
	C332.904755,371.935883 331.109192,371.278595 329.313629,370.621277 
z"/>
<path fill="#1C95BA" opacity="1.000000" stroke="none" 
	d="
M302.815399,380.957001 
	C301.537933,379.417145 300.260468,377.877258 298.945251,376.043304 
	C307.025391,374.394501 315.143280,373.039764 323.522583,372.001770 
	C322.221771,373.959167 320.659607,375.599823 319.097412,377.240479 
	C319.097412,377.240479 319.071991,377.111176 318.905090,377.144775 
	C318.429138,377.280701 318.194763,377.473663 318.035065,377.757263 
	C317.497498,377.976227 316.959930,378.195190 315.763153,378.600281 
	C311.007751,379.509949 306.911560,380.233490 302.815399,380.957001 
z"/>
<path fill="#6A837E" opacity="1.000000" stroke="none" 
	d="
M160.272491,373.773193 
	C158.805450,373.764191 157.543259,373.465637 155.904160,373.037292 
	C158.104507,366.008881 160.681793,359.110260 163.772156,352.401550 
	C165.337250,353.703217 166.389282,354.815033 167.441315,355.926819 
	C165.119980,361.779114 162.798660,367.631378 160.272491,373.773193 
z"/>
<path fill="#DBE3E0" opacity="1.000000" stroke="none" 
	d="
M302.977173,381.260498 
	C306.911560,380.233490 311.007751,379.509949 315.533691,378.779419 
	C314.319824,381.984772 312.676239,385.197205 310.974243,388.769470 
	C308.323517,386.607574 305.731232,384.085785 302.977173,381.260498 
z"/>
<path fill="#0F9ACE" opacity="1.000000" stroke="none" 
	d="
M319.509186,377.227966 
	C320.659607,375.599823 322.221771,373.959167 323.971832,372.011108 
	C324.159698,371.703735 324.277405,371.745667 324.634949,371.777466 
	C325.323944,371.591125 325.655365,371.372925 325.986816,371.154755 
	C326.875824,370.975220 327.764862,370.795685 328.983765,370.618713 
	C331.109192,371.278595 332.904755,371.935883 334.920258,372.925293 
	C330.067108,374.576752 324.994049,375.896118 319.509186,377.227966 
z"/>
<path fill="#0F9ACE" opacity="1.000000" stroke="none" 
	d="
M191.625244,38.388641 
	C194.788254,35.995655 198.237823,34.047142 201.687393,32.098625 
	C202.041183,32.674110 202.394974,33.249596 202.748764,33.825081 
	C199.779205,35.657341 196.809631,37.489601 193.891891,39.694012 
	C193.943726,40.066158 193.971649,40.030804 193.936432,39.780514 
	C193.456665,39.574482 193.012115,39.618740 192.567566,39.662994 
	C192.348984,39.386364 192.130402,39.109737 191.625244,38.388641 
z"/>
<path fill="#52B7DC" opacity="1.000000" stroke="none" 
	d="
M280.603851,21.141430 
	C280.990082,21.459053 280.920868,21.669693 280.300659,22.089043 
	C276.142883,22.478037 272.536102,22.658318 268.929321,22.838598 
	C268.932465,22.485273 268.935608,22.131947 268.924988,21.513180 
	C272.656921,21.176641 276.402649,21.105545 280.603851,21.141430 
z"/>
<path fill="#29A5D4" opacity="1.000000" stroke="none" 
	d="
M179.691742,45.114101 
	C179.289764,46.368816 178.567596,47.665127 177.500671,49.008110 
	C176.706329,48.500397 176.256760,47.946007 175.797760,47.379986 
	C176.940048,46.669037 178.155807,45.912369 179.691742,45.114101 
z"/>
<path fill="#DFE8E2" opacity="1.000000" stroke="none" 
	d="
M167.640182,355.660522 
	C166.389282,354.815033 165.337250,353.703217 164.117584,352.311218 
	C165.039276,352.010498 166.128616,351.990021 167.627655,351.979919 
	C167.971252,353.124939 167.905167,354.259613 167.640182,355.660522 
z"/>
<path fill="#29A5D4" opacity="1.000000" stroke="none" 
	d="
M182.037384,43.712631 
	C182.504547,44.532253 182.769455,45.385712 183.034363,46.239174 
	C182.351135,45.892963 181.667923,45.546753 180.939026,44.838959 
	C181.207291,44.233742 181.521210,43.990108 182.037384,43.712631 
z"/>
<path fill="#29A5D4" opacity="1.000000" stroke="none" 
	d="
M204.473694,31.672703 
	C205.954010,31.267326 207.434326,30.861954 208.914658,30.456581 
	C209.004730,30.734810 209.094818,31.013041 209.184891,31.291269 
	C208.507187,31.571495 207.829483,31.851719 206.335678,32.027782 
	C205.170944,31.839983 204.822327,31.756346 204.473694,31.672703 
z"/>
<path fill="#29A5D4" opacity="1.000000" stroke="none" 
	d="
M187.757660,39.960686 
	C187.920441,41.309387 187.851669,42.675251 187.782898,44.041111 
	C187.596649,44.038620 187.410416,44.036125 187.224167,44.033634 
	C187.136978,43.142139 187.049789,42.250648 186.934509,40.987328 
	C186.985687,40.279274 187.192245,40.066719 187.757660,39.960686 
z"/>
<path fill="#0F9ACE" opacity="1.000000" stroke="none" 
	d="
M204.056152,31.774860 
	C204.822327,31.756346 205.170944,31.839983 206.052368,32.003525 
	C205.372787,32.480915 204.160400,32.878399 202.948013,33.275883 
	C203.178207,32.809593 203.408401,32.343304 204.056152,31.774860 
z"/>
<path fill="#0F9ACE" opacity="1.000000" stroke="none" 
	d="
M116.459312,106.500397 
	C116.201958,107.076614 115.756783,107.425407 115.311600,107.774200 
	C115.317436,107.245918 115.323273,106.717628 115.586914,106.027527 
	C115.986977,106.001450 116.129234,106.137207 116.459312,106.500397 
z"/>
<path fill="#0F9ACE" opacity="1.000000" stroke="none" 
	d="
M318.281555,377.766357 
	C318.194763,377.473663 318.429138,377.280701 318.970581,377.152161 
	C319.123779,377.493927 318.898834,377.710419 318.281555,377.766357 
z"/>
<path fill="#367B6B" opacity="1.000000" stroke="none" 
	d="
M288.149841,196.423660 
	C294.755280,192.448181 301.040161,188.686172 307.340332,184.949966 
	C308.484283,184.271561 309.645721,183.289902 310.876923,183.154190 
	C314.509583,182.753799 318.181274,182.707565 321.837708,182.522736 
	C321.762726,185.837021 322.281158,189.303955 321.476746,192.430557 
	C320.198792,197.397781 317.832336,202.076630 316.363892,207.007767 
	C315.862488,208.691528 316.018250,211.533707 317.078949,212.447266 
	C318.124634,213.347885 321.219696,213.200287 322.511841,212.264542 
	C330.124542,206.751648 337.517456,200.930115 344.894592,195.098923 
	C349.401123,191.536758 353.216278,186.188599 358.295135,184.486069 
	C365.071381,182.214539 372.763428,182.282684 380.080017,182.111542 
	C389.959717,181.880493 395.660095,189.535477 393.358032,199.136795 
	C388.682648,218.636719 367.777557,231.075516 348.521240,225.818115 
	C342.420868,224.152557 338.175659,220.606735 336.915558,213.680725 
	C333.449371,215.705368 330.518433,217.967300 327.206207,219.225677 
	C321.987671,221.208282 316.600769,223.308304 311.124939,223.916626 
	C303.649353,224.747116 300.877411,220.841263 302.645630,213.330154 
	C303.673523,208.963898 305.077911,204.687042 306.272003,200.358688 
	C306.699707,198.808426 307.007477,197.225082 307.704346,194.210327 
	C304.974182,195.768265 303.248505,196.506042 301.808167,197.614578 
	C291.647919,205.434052 281.654785,213.476334 271.351624,221.100571 
	C268.694733,223.066650 265.209900,224.528397 261.949463,224.918320 
	C257.225708,225.483307 255.286026,222.073318 257.623383,217.843414 
	C260.035553,213.478088 262.943848,209.389374 265.454437,205.074554 
	C266.231262,203.739532 266.417267,202.060730 266.873749,200.539337 
	C266.477722,200.275101 266.081696,200.010864 265.685669,199.746628 
	C263.931427,200.855225 262.091675,201.849823 260.437073,203.091248 
	C250.978012,210.188370 241.563156,217.344391 232.132675,224.479614 
	C231.203354,225.182755 230.344849,226.324387 229.324173,226.496750 
	C226.352081,226.998581 223.218903,227.606201 220.364410,227.055420 
	C219.576843,226.903442 219.543152,222.844391 219.158813,220.549805 
	C212.099518,224.853271 204.270905,228.309891 195.281738,228.099808 
	C186.422516,227.892746 181.790451,223.226410 184.543594,215.053436 
	C187.691360,205.708923 192.706406,196.974945 197.193283,188.119156 
	C197.896622,186.730988 199.999054,185.618805 201.642502,185.273560 
	C203.015625,184.985092 205.051041,185.605301 206.060516,186.581070 
	C206.791779,187.287918 206.809418,189.446701 206.309128,190.593185 
	C203.848755,196.231598 200.832855,201.639145 198.579330,207.351578 
	C197.375320,210.403564 197.316422,213.907288 196.740707,217.207123 
	C200.101196,216.903793 203.689499,217.255875 206.781860,216.181091 
	C218.727524,212.029266 229.130402,205.899597 233.847549,193.064392 
	C235.332794,189.023010 237.512451,185.232773 239.432678,181.356537 
	C241.139023,177.912033 244.035080,176.959763 247.368622,178.442505 
	C250.881119,180.004868 249.343796,182.845139 248.445541,185.318634 
	C247.026428,189.226364 245.458755,193.081375 244.098953,197.008911 
	C243.477631,198.803513 243.201797,200.717728 242.446671,203.964813 
	C245.779678,202.154282 247.926376,201.067902 249.995468,199.849670 
	C257.015259,195.716522 263.956024,191.445618 271.043518,187.433182 
	C273.032684,186.307053 275.372559,185.620667 277.638367,185.198990 
	C282.963989,184.207809 285.859558,187.713913 284.202301,192.872467 
	C283.668213,194.535019 283.220276,196.225281 282.379242,199.120438 
	C284.969727,197.945435 286.402130,197.295715 288.149841,196.423660 
M377.090027,189.772339 
	C363.422455,187.989243 352.130127,201.953293 350.191772,211.897675 
	C349.020935,217.904602 352.237976,221.023773 358.137970,219.376099 
	C369.703491,216.146240 377.265717,208.485291 381.348236,197.324814 
	C382.607605,193.882080 381.930969,191.070816 377.090027,189.772339 
z"/>
<path fill="#FDFEFE" opacity="1.000000" stroke="none" 
	d="
M162.878525,338.197479 
	C145.259888,326.205322 133.151337,309.461945 123.014526,291.195892 
	C108.018967,264.174683 100.710693,235.185928 101.954300,204.176697 
	C103.208153,172.911926 113.578545,145.123306 133.602325,121.004494 
	C135.195007,119.086082 136.791809,117.171097 138.689697,115.107483 
	C137.205444,123.182526 134.983200,131.338440 133.720428,139.640305 
	C131.002182,157.511032 129.844940,175.481476 131.868118,193.553391 
	C133.043427,204.051712 133.941498,214.580872 135.008789,225.091644 
	C135.208054,227.053955 135.618652,228.994797 135.546555,231.349609 
	C131.086639,231.360870 126.952065,230.349243 122.952682,230.735886 
	C118.222458,231.193207 116.152969,234.557495 117.218155,238.239197 
	C118.287186,241.934174 121.675186,243.712280 125.964012,242.346375 
	C129.723801,241.148926 133.321243,239.441681 137.003311,238.369751 
	C143.166565,270.897766 150.839371,302.608185 162.184570,333.346710 
	C162.737534,334.844910 162.661606,336.575256 162.878525,338.197479 
M106.034943,203.900940 
	C107.501228,188.554825 112.134544,174.048935 117.581833,159.735001 
	C118.546402,157.200409 118.729111,154.368286 119.272873,151.673553 
	C118.669838,151.568649 118.066795,151.463745 117.463760,151.358841 
	C108.804276,172.845871 102.506134,194.812881 103.336769,218.228912 
	C103.962120,218.335236 104.587463,218.441559 105.212814,218.547897 
	C105.470871,213.974548 105.728928,209.401199 106.034943,203.900940 
z"/>
<path fill="#FEFEFF" opacity="1.000000" stroke="none" 
	d="
M218.346375,57.422791 
	C234.952942,50.839066 252.637604,48.793037 270.457916,49.163448 
	C292.470795,49.621010 314.336761,52.389801 334.728119,61.288868 
	C345.337189,65.918831 355.206116,72.244926 365.829834,78.111389 
	C366.250305,78.417923 366.385590,78.870560 366.385590,78.870560 
	C358.880219,83.074959 351.326691,87.196045 343.878937,91.500122 
	C325.190277,102.300323 306.666290,113.392387 287.824860,123.917397 
	C281.404297,127.504005 274.233612,129.747818 267.405670,132.605179 
	C267.138641,132.011719 266.871613,131.418243 266.604584,130.824783 
	C269.171204,129.566147 271.828796,128.462234 274.285767,127.017204 
	C279.680695,123.844322 285.463470,121.078094 290.191162,117.084297 
	C296.826874,111.478653 297.650482,104.338524 294.179749,96.317780 
	C289.287659,85.012321 280.839722,77.073509 270.550476,70.769058 
	C255.982330,61.842823 239.980103,58.336952 223.110580,57.992405 
	C221.624069,57.962044 220.140335,57.795979 218.346375,57.422791 
z"/>
<path fill="#637D77" opacity="1.000000" stroke="none" 
	d="
M170.707458,343.668945 
	C170.633224,344.063416 170.315216,344.130219 169.986053,343.859131 
	C168.470383,343.009155 167.283875,342.430237 166.097382,341.851318 
	C166.048553,341.566589 166.003738,341.281219 166.154968,340.417053 
	C170.529236,324.804047 175.309387,309.902252 178.696228,294.690308 
	C181.209366,283.402618 182.532974,271.750183 183.242783,260.190033 
	C183.904282,249.416656 179.559036,244.100586 169.440720,240.216644 
	C159.225143,236.295380 148.568726,236.729965 137.898590,236.706024 
	C137.613403,234.953690 137.354294,233.561569 137.095184,232.169449 
	C146.843658,232.726212 156.863983,232.042480 166.282120,234.106567 
	C184.062500,238.003342 190.412048,248.565826 188.546921,266.707581 
	C186.411667,287.476807 181.220749,307.549347 175.480682,327.521240 
	C173.967133,332.787476 172.350830,338.024170 170.707458,343.668945 
z"/>
<path fill="#1592B9" opacity="1.000000" stroke="none" 
	d="
M142.559265,110.138718 
	C143.478195,106.906532 144.206528,103.254524 146.002869,100.238632 
	C157.636505,80.706795 174.342865,67.684097 196.484680,61.976051 
	C201.098206,60.786701 205.820236,60.018246 210.950073,59.091995 
	C187.441132,69.761627 166.816864,85.076355 148.702271,103.904831 
	C146.749313,105.934761 144.808823,107.976700 142.559265,110.138718 
z"/>
<path fill="#387D6B" opacity="1.000000" stroke="none" 
	d="
M210.299347,174.179443 
	C206.407486,175.040817 204.813629,173.402908 206.240677,170.272476 
	C208.499817,165.316772 211.033371,160.382111 214.240906,156.019455 
	C215.357010,154.501404 218.816513,154.706284 221.205765,154.124298 
	C221.514450,156.324829 222.648590,158.825180 221.978455,160.670197 
	C219.893448,166.410660 217.607422,172.316681 210.299347,174.179443 
z"/>
<path fill="#1590BA" opacity="1.000000" stroke="none" 
	d="
M366.712097,78.930908 
	C366.385590,78.870560 366.250305,78.417923 366.171234,78.195381 
	C373.444824,74.626007 380.788635,71.259369 388.160400,67.955139 
	C389.188446,67.494339 390.354126,67.340630 391.857330,67.065109 
	C389.838806,71.398148 387.685822,75.890381 384.934082,79.979698 
	C381.205231,85.521049 378.803467,85.893250 372.930756,82.633209 
	C370.914215,81.513809 368.999725,80.210541 366.712097,78.930908 
z"/>
<path fill="#7CB8AE" opacity="1.000000" stroke="none" 
	d="
M136.801849,232.065674 
	C137.354294,233.561569 137.613403,234.953690 137.715744,236.827850 
	C137.283676,237.451385 137.094147,237.667953 136.990387,237.959610 
	C133.321243,239.441681 129.723801,241.148926 125.964012,242.346375 
	C121.675186,243.712280 118.287186,241.934174 117.218155,238.239197 
	C116.152969,234.557495 118.222458,231.193207 122.952682,230.735886 
	C126.952065,230.349243 131.086639,231.360870 135.544006,231.747498 
	C136.120590,231.814865 136.314560,231.888382 136.801849,232.065674 
z"/>
<path fill="#1592B9" opacity="1.000000" stroke="none" 
	d="
M141.232605,111.783821 
	C141.211365,111.383308 141.445602,110.845154 141.977707,110.227188 
	C142.013077,110.646973 141.750580,111.146576 141.232605,111.783821 
z"/>
<path fill="#1F97BB" opacity="1.000000" stroke="none" 
	d="
M190.961349,357.022278 
	C191.511520,357.202179 192.080978,357.370361 192.823975,357.781494 
	C192.997482,358.024475 193.021042,357.988037 192.740509,357.997528 
	C191.977066,357.663788 191.494156,357.320557 191.011246,356.977325 
	C191.011246,356.977325 190.980637,357.010559 190.961349,357.022278 
z"/>
<path fill="#1F97BB" opacity="1.000000" stroke="none" 
	d="
M377.959991,351.977722 
	C374.423676,356.457397 369.638885,358.927948 364.666656,361.096832 
	C364.355438,360.584656 364.044220,360.072449 363.733032,359.560272 
	C368.255432,357.012726 372.777832,354.465179 377.651123,351.963593 
	C378.001984,352.009552 377.959991,351.977722 377.959991,351.977722 
z"/>
<path fill="#1F97BB" opacity="1.000000" stroke="none" 
	d="
M378.019470,352.029236 
	C378.112701,351.992310 378.188416,351.935638 378.112061,351.928345 
	C377.959991,351.977722 378.001984,352.009552 378.019470,352.029236 
z"/>
<path fill="#1C95BA" opacity="1.000000" stroke="none" 
	d="
M325.671448,371.135162 
	C325.655365,371.372925 325.323944,371.591125 324.684845,371.815063 
	C324.703491,371.585754 325.029785,371.350677 325.671448,371.135162 
z"/>
<path fill="#C8E8F4" opacity="1.000000" stroke="none" 
	d="
M100.069214,265.213898 
	C99.947716,261.206421 99.873756,257.568451 99.660942,253.938629 
	C99.439674,250.164688 99.084229,246.398621 99.927025,242.279938 
	C100.571487,243.987808 101.517212,245.645859 101.809242,247.412018 
	C103.215485,255.916534 104.455170,264.448853 105.654305,272.985291 
	C105.674278,273.127472 104.440659,273.445770 103.389244,273.673767 
	C102.009552,270.972748 101.032646,268.279877 100.069214,265.213898 
z"/>
<path fill="#2E686E" opacity="1.000000" stroke="none" 
	d="
M165.949768,342.166901 
	C167.283875,342.430237 168.470383,343.009155 169.825226,343.882141 
	C169.634583,345.948029 169.275604,347.719879 168.870712,349.887146 
	C168.051376,350.269653 167.277939,350.256714 166.080505,350.146973 
	C165.656494,350.050171 165.574814,350.126617 165.574814,350.126617 
	C165.055344,349.010132 164.535873,347.893677 164.010849,346.398438 
	C164.604248,344.840637 165.203201,343.661560 165.949768,342.166901 
z"/>
<path fill="#48A2A3" opacity="1.000000" stroke="none" 
	d="
M94.256912,242.800659 
	C93.732323,239.036224 93.371956,235.434052 93.065758,231.400787 
	C97.865410,231.009247 97.268883,234.467346 96.939117,237.371414 
	C96.744202,239.087936 95.692284,240.707138 94.936600,242.755173 
	C94.847450,243.140244 94.421143,242.962921 94.256912,242.800659 
z"/>
<path fill="#1F97BB" opacity="1.000000" stroke="none" 
	d="
M165.523087,350.208557 
	C165.574814,350.126617 165.656494,350.050171 165.697662,350.082947 
	C165.738831,350.115723 165.732819,350.337830 165.732819,350.337830 
	C165.732819,350.337830 165.471359,350.290466 165.523087,350.208557 
z"/>
<path fill="#DFE7E1" opacity="1.000000" stroke="none" 
	d="
M137.003311,238.369751 
	C137.094147,237.667953 137.283676,237.451385 137.741821,237.188065 
	C148.568726,236.729965 159.225143,236.295380 169.440720,240.216644 
	C179.559036,244.100586 183.904282,249.416656 183.242783,260.190033 
	C182.532974,271.750183 181.209366,283.402618 178.696228,294.690308 
	C175.309387,309.902252 170.529236,324.804047 166.159149,340.200439 
	C165.408493,340.266968 164.845703,339.971954 164.020935,339.149078 
	C163.466782,338.423645 163.174606,338.226074 162.882416,338.028473 
	C162.882431,338.028473 162.948273,338.113953 162.913391,338.155701 
	C162.661606,336.575256 162.737534,334.844910 162.184570,333.346710 
	C150.839371,302.608185 143.166565,270.897766 137.003311,238.369751 
z"/>
<path fill="#EBF7FB" opacity="1.000000" stroke="none" 
	d="
M173.050705,57.073837 
	C193.782471,43.847256 215.293289,33.879490 240.036819,33.009495 
	C208.883194,41.877243 179.458923,54.525368 153.012131,73.754166 
	C152.701263,73.212418 152.390411,72.670662 152.079559,72.128906 
	C158.965240,67.170921 165.850922,62.212933 173.050705,57.073837 
z"/>
<path fill="#E8F5FA" opacity="1.000000" stroke="none" 
	d="
M311.295563,33.739639 
	C322.561432,35.546642 333.085571,38.088573 341.796997,45.478306 
	C323.441315,37.537952 303.293396,37.805161 283.818787,32.866333 
	C287.848419,30.888411 298.462402,31.314482 311.295563,33.739639 
z"/>
<path fill="#DAF0F7" opacity="1.000000" stroke="none" 
	d="
M268.513855,22.893566 
	C272.536102,22.658318 276.142883,22.478037 280.143799,22.382328 
	C280.965912,22.723608 281.393860,22.980312 283.246735,24.091780 
	C273.334839,24.969597 264.761383,25.728878 256.187958,26.488159 
	C256.111664,26.007002 256.035400,25.525846 255.959106,25.044689 
	C260.005554,24.345970 264.051971,23.647251 268.513855,22.893566 
z"/>
<path fill="#AADCEE" opacity="1.000000" stroke="none" 
	d="
M147.000305,78.013741 
	C146.303909,79.030502 145.607513,80.047264 144.387482,80.971512 
	C143.706665,80.749557 143.549515,80.620117 143.392380,80.490677 
	C144.396011,79.692398 145.399643,78.894112 146.717712,78.063744 
	C147.032166,78.031654 147.000305,78.013741 147.000305,78.013741 
z"/>
<path fill="#FFFFFF" opacity="1.000000" stroke="none" 
	d="
M192.407501,39.816387 
	C193.012115,39.618740 193.456665,39.574482 193.951813,39.764053 
	C193.717407,40.474701 193.432404,40.951519 192.618851,41.270470 
	C191.952423,40.948090 191.814545,40.783577 191.676682,40.619064 
	C191.768707,40.316296 191.958969,40.099869 192.407501,39.816387 
z"/>
<path fill="#FFFFFF" opacity="1.000000" stroke="none" 
	d="
M192.282150,41.371166 
	C191.755981,41.646927 191.037979,41.664124 190.319962,41.681316 
	C190.575180,41.388664 190.830414,41.096012 191.381165,40.711212 
	C191.814545,40.783577 191.952423,40.948090 192.282150,41.371166 
z"/>
<path fill="#AADCEE" opacity="1.000000" stroke="none" 
	d="
M147.045624,78.045990 
	C147.257034,77.701866 147.455002,77.343407 147.652969,76.984940 
	C147.542084,77.229469 147.431213,77.474007 147.160324,77.866142 
	C147.000305,78.013741 147.032166,78.031654 147.045624,78.045990 
z"/>
<path fill="#FFFFFF" opacity="1.000000" stroke="none" 
	d="
M125.613510,99.798981 
	C125.339706,99.791832 125.276642,99.586784 125.213577,99.381729 
	C125.417130,99.454842 125.620689,99.527962 125.613510,99.798981 
z"/>
<path fill="#29A5D4" opacity="1.000000" stroke="none" 
	d="
M189.465576,43.440292 
	C189.523666,43.403820 189.407486,43.476761 189.465576,43.440292 
z"/>
<path fill="#AADCEE" opacity="1.000000" stroke="none" 
	d="
M133.140381,92.132919 
	C132.830078,92.322563 132.519791,92.512215 132.209503,92.701874 
	C132.203735,92.465118 132.197952,92.228363 132.548035,91.951599 
	C132.903885,91.911583 133.140381,92.132919 133.140381,92.132919 
z"/>
<path fill="#AADCEE" opacity="1.000000" stroke="none" 
	d="
M132.783966,91.802734 
	C132.770172,91.374344 132.955536,91.110428 133.562927,90.907593 
	C133.905731,90.913048 134.140259,91.132729 134.140259,91.132721 
	C133.963242,91.407303 133.786224,91.681885 133.374786,92.044693 
	C133.140381,92.132919 132.903885,91.911583 132.783966,91.802734 
z"/>
<path fill="#AADCEE" opacity="1.000000" stroke="none" 
	d="
M135.140244,90.132744 
	C134.963196,90.407295 134.786163,90.681847 134.374695,91.044563 
	C134.140259,91.132729 133.905731,90.913048 133.784653,90.803108 
	C133.770096,90.373810 133.955673,90.110046 134.563049,89.907455 
	C134.905807,89.913033 135.140244,90.132744 135.140244,90.132744 
z"/>
<path fill="#AADCEE" opacity="1.000000" stroke="none" 
	d="
M142.422195,81.498558 
	C142.553299,81.200706 142.749588,80.954971 143.201721,80.626015 
	C143.549515,80.620117 143.706665,80.749557 144.084106,81.091049 
	C144.179550,81.618828 143.974792,81.869194 143.267212,81.953590 
	C142.703613,81.734833 142.562897,81.616692 142.422195,81.498558 
z"/>
<path fill="#DAF0F7" opacity="1.000000" stroke="none" 
	d="
M283.359558,24.491840 
	C283.328003,24.463160 283.391083,24.520523 283.359558,24.491840 
z"/>
<path fill="#FFFFFF" opacity="1.000000" stroke="none" 
	d="
M131.609589,82.409569 
	C131.583725,82.674210 131.379639,82.721344 131.175568,82.768478 
	C131.260834,82.576340 131.346115,82.384201 131.609589,82.409569 
z"/>
<path fill="#FDFEFE" opacity="1.000000" stroke="none" 
	d="
M162.956436,338.299438 
	C163.174606,338.226074 163.466782,338.423645 163.871948,338.866699 
	C163.666763,338.931580 163.348602,338.750977 162.956436,338.299438 
z"/>
<path fill="#AADCEE" opacity="1.000000" stroke="none" 
	d="
M141.455002,82.494461 
	C141.591690,82.203079 141.789474,81.961838 142.235275,81.634644 
	C142.562897,81.616692 142.703613,81.734833 143.040161,82.047348 
	C143.109497,82.554344 142.904846,82.802513 142.224945,82.905060 
	C141.827881,82.823891 141.455002,82.494461 141.455002,82.494461 
z"/>
<path fill="#AADCEE" opacity="1.000000" stroke="none" 
	d="
M140.454910,83.494530 
	C140.597900,83.199181 140.802017,82.954987 141.261139,82.628204 
	C141.455002,82.494461 141.827881,82.823891 142.001099,83.002754 
	C142.082458,83.510925 141.897644,83.775253 141.223846,83.899261 
	C140.827820,83.823914 140.454910,83.494530 140.454910,83.494530 
z"/>
<path fill="#AADCEE" opacity="1.000000" stroke="none" 
	d="
M139.453293,84.494904 
	C139.596863,84.199593 139.801376,83.955376 140.260880,83.628387 
	C140.454910,83.494530 140.827820,83.823914 141.001068,84.002769 
	C141.082397,84.510963 140.897537,84.775314 140.223495,84.899384 
	C139.827255,84.824089 139.453293,84.494904 139.453293,84.494904 
z"/>
<path fill="#AADCEE" opacity="1.000000" stroke="none" 
	d="
M140.000687,85.002899 
	C140.082245,85.510979 139.897461,85.775284 139.223907,85.899292 
	C138.828064,85.823936 138.455338,85.494568 138.455338,85.494568 
	C138.597778,85.199387 138.801453,84.955353 139.259827,84.628685 
	C139.453293,84.494904 139.827255,84.824089 140.000687,85.002899 
z"/>
<path fill="#AADCEE" opacity="1.000000" stroke="none" 
	d="
M137.462372,86.501915 
	C137.599716,86.202797 137.801422,85.956436 138.261414,85.628700 
	C138.455338,85.494568 138.828064,85.823936 139.001190,86.002800 
	C139.082382,86.511055 138.897507,86.775436 138.225800,86.901016 
	C137.831924,86.827232 137.462372,86.501915 137.462372,86.501915 
z"/>
<path fill="#AADCEE" opacity="1.000000" stroke="none" 
	d="
M136.140549,89.132370 
	C135.963440,89.407005 135.786331,89.681648 135.374725,90.044518 
	C135.140244,90.132744 134.905807,89.913033 134.784790,89.803062 
	C134.770996,89.372864 134.957321,89.108376 135.565186,88.905731 
	C135.907593,88.911842 136.140549,89.132370 136.140549,89.132370 
z"/>
<path fill="#AADCEE" opacity="1.000000" stroke="none" 
	d="
M136.574219,87.563202 
	C136.681839,87.259254 136.854721,86.998650 137.277618,86.641647 
	C137.462372,86.501915 137.831924,86.827232 138.002991,87.004570 
	C138.081390,87.513229 137.893875,87.777145 137.239685,87.917633 
	C136.867889,87.861626 136.574219,87.563202 136.574219,87.563202 
z"/>
<path fill="#AADCEE" opacity="1.000000" stroke="none" 
	d="
M137.012238,88.013260 
	C137.077026,88.503120 136.892578,88.768425 136.371887,89.046577 
	C136.140549,89.132370 135.907593,88.911842 135.787643,88.801003 
	C135.773560,88.372223 135.945450,88.095253 136.378784,87.711227 
	C136.574219,87.563202 136.867889,87.861626 137.012238,88.013260 
z"/>
<path fill="#FBFDFD" opacity="1.000000" stroke="none" 
	d="
M507.033875,414.097839 
	C510.635681,411.815643 513.888428,409.569275 517.428284,407.950928 
	C518.484497,407.468018 520.344849,408.743713 521.836731,409.213684 
	C521.411438,410.540039 521.341003,412.175781 520.500305,413.139984 
	C516.572815,417.644623 512.518311,422.048492 508.317780,426.299225 
	C507.024506,427.607941 505.124847,428.317474 502.831146,429.708862 
	C501.068085,423.118225 503.583008,418.658813 507.033875,414.097839 
z"/>
<path fill="#DFE6E2" opacity="1.000000" stroke="none" 
	d="
M190.633301,356.874817 
	C191.494156,357.320557 191.977066,357.663788 192.755737,357.982056 
	C192.972961,358.886993 192.894424,359.816895 192.815887,360.746765 
	C192.354843,360.865112 191.893784,360.983490 191.432739,361.101837 
	C191.040283,359.658661 190.647827,358.215454 190.633301,356.874817 
z"/>
<path fill="#DFE8E2" opacity="1.000000" stroke="none" 
	d="
M213.748459,374.079895 
	C212.986877,373.907349 212.585846,373.707977 212.184830,373.508606 
	C212.529861,373.322540 212.994095,372.900055 213.194412,373.001038 
	C213.578461,373.194702 213.812637,373.685547 213.748459,374.079895 
z"/>
<path fill="#637E79" opacity="1.000000" stroke="none" 
	d="
M574.699341,506.201141 
	C588.649597,517.912415 587.537659,537.595703 577.771973,547.780090 
	C567.348389,558.650635 551.023376,559.802734 539.030762,550.397217 
	C528.140320,541.855957 525.691284,525.275940 533.517639,513.072937 
	C542.564758,498.966492 558.468384,496.201813 574.699341,506.201141 
M557.408142,536.877258 
	C558.487793,536.479919 559.581177,536.115906 560.644653,535.679138 
	C564.276306,534.187683 565.799377,531.079712 564.844055,527.682312 
	C564.140442,525.180298 562.174927,522.599304 560.049133,521.035950 
	C557.102844,518.869141 554.116821,520.390076 551.639648,522.773926 
	C546.548950,527.672913 548.772888,533.969727 557.408142,536.877258 
z"/>
<path fill="#DBE3E0" opacity="1.000000" stroke="none" 
	d="
M377.516663,189.841507 
	C381.930969,191.070816 382.607605,193.882080 381.348236,197.324814 
	C377.265717,208.485291 369.703491,216.146240 358.137970,219.376099 
	C352.237976,221.023773 349.020935,217.904602 350.191772,211.897675 
	C352.130127,201.953293 363.422455,187.989243 377.516663,189.841507 
z"/>
<path fill="#23A3D2" opacity="1.000000" stroke="none" 
	d="
M106.010963,204.364395 
	C105.728928,209.401199 105.470871,213.974548 105.212814,218.547897 
	C104.587463,218.441559 103.962120,218.335236 103.336769,218.228912 
	C102.506134,194.812881 108.804276,172.845871 117.463760,151.358841 
	C118.066795,151.463745 118.669838,151.568649 119.272873,151.673553 
	C118.729111,154.368286 118.546402,157.200409 117.581833,159.735001 
	C112.134544,174.048935 107.501228,188.554825 106.010963,204.364395 
z"/>
<path fill="#77B5AA" opacity="1.000000" stroke="none" 
	d="
M557.029358,536.879028 
	C548.772888,533.969727 546.548950,527.672913 551.639648,522.773926 
	C554.116821,520.390076 557.102844,518.869141 560.049133,521.035950 
	C562.174927,522.599304 564.140442,525.180298 564.844055,527.682312 
	C565.799377,531.079712 564.276306,534.187683 560.644653,535.679138 
	C559.581177,536.115906 558.487793,536.479919 557.029358,536.879028 
z"/>
</svg>